<svg width="21" height="21" viewBox="0 0 21 21" fill="none" xmlns="http://www.w3.org/2000/svg">
<path d="M20.0664 17.2858C20.0664 16.7388 19.6888 16.2856 19.233 16.2856H0.899738C0.44401 16.2856 0.0664062 16.7388 0.0664062 17.2858V19.2858C0.0664062 19.8326 0.44401 20.2858 0.899738 20.2858H19.233C19.6888 20.2858 20.0664 19.8326 20.0664 19.2858V17.2858ZM20.0664 9.28571C20.0664 8.73886 19.6888 8.28573 19.233 8.28573H0.899738C0.44401 8.28573 0.0664062 8.73886 0.0664062 9.28571V11.2858C0.0664062 11.8326 0.44401 12.2858 0.899738 12.2858H19.233C19.6888 12.2858 20.0664 11.8326 20.0664 11.2858V9.28571ZM20.0664 1.28577C20.0664 0.73889 19.6888 0.285767 19.233 0.285767H0.899738C0.44401 0.285767 0.0664062 0.73889 0.0664062 1.28577V3.28576C0.0664062 3.83263 0.44401 4.28576 0.899738 4.28576H19.233C19.6888 4.28576 20.0664 3.83263 20.0664 3.28576V1.28577Z" fill="#DF0A15"/>
</svg>
