<svg width="270" height="198" viewBox="0 0 270 198" fill="none" xmlns="http://www.w3.org/2000/svg">
<g clip-path="url(#clip0)">
<path d="M143.187 162.235C142.296 162.235 141.406 162.159 140.528 162.009L13.107 140.262C9.44636 139.631 6.12753 137.725 3.73814 134.883C1.34875 132.041 0.0429534 128.445 0.0519779 124.733V50.2164C0.036557 47.3107 0.831927 44.4581 2.34881 41.979C3.8657 39.4999 6.04407 37.4922 8.63941 36.1815L76.0177 1.73686C79.0178 0.207091 82.4293 -0.322516 85.7525 0.225653L215.607 21.4344C219.325 22.0148 222.709 23.9148 225.139 26.7861C227.568 29.6574 228.881 33.3075 228.836 37.0673V111.567C228.855 114.495 228.05 117.37 226.513 119.864C224.976 122.358 222.77 124.37 220.144 125.671L150.245 160.585C148.059 161.702 145.643 162.296 143.187 162.322V162.235Z" fill="#1D1D1B"/>
<path d="M144.857 156.851L4.91992 132.967V42.678L144.857 66.5616V156.851Z" fill="white" stroke="#1D1D1B" stroke-linecap="round" stroke-linejoin="round"/>
<path d="M223.951 117.334L144.856 156.851V66.4574L223.951 26.9408V117.334Z" fill="#FCC55A" stroke="#1D1D1B" stroke-linecap="round" stroke-linejoin="round"/>
<path d="M223.952 26.9408L144.857 66.5616L4.91992 42.678L81.4246 3.59558L223.952 26.9408Z" fill="white" stroke="#1D1D1B" stroke-linecap="round" stroke-linejoin="round"/>
<path fill-rule="evenodd" clip-rule="evenodd" d="M42.6242 100.659C42.6242 100.659 40.2252 93.8151 42.8328 90.7753C45.4403 87.7356 52.1851 84.9217 55.1402 83.6189C58.0954 82.3162 67.3087 77.2615 69.8293 72.0679C72.3499 66.8743 75.2182 63.244 79.338 64.234C83.4579 65.2241 89.264 68.3681 91.6455 77.3657C94.0271 86.3633 87.9602 96.7679 87.9602 96.7679C87.9602 96.7679 92.7407 96.768 93.3665 104.55C93.9923 112.331 88.3948 119.731 88.3948 119.731C88.3948 119.731 92.9319 121.92 90.5504 129.545C88.1688 137.17 83.2145 139.845 78.2429 138.647C73.2712 137.448 63.3452 133.731 61.3809 128.225C61.3809 128.225 62.0241 125.359 66.144 128.225C70.2639 131.091 78.0169 134.357 81.2676 128.433C84.5183 122.51 81.4588 122.441 79.0947 122.302C76.7305 122.163 68.5081 121.016 68.0909 118.967C67.6737 116.917 68.2995 116.431 70.2465 116.465C72.1934 116.5 80.833 117.977 82.7626 114.103C84.6921 110.23 86.2393 104.376 83.6144 103.681C80.9895 102.986 79.7379 105.974 75.6527 106.061C71.5676 106.148 67.639 106.061 66.3352 103.369C65.0314 100.676 69.3599 101.093 71.0983 100.641C72.8366 100.19 80.5896 96.8895 82.7626 91.1748C84.9355 85.4601 81.8934 78.8769 80.833 78.6164C79.7726 78.3558 73.2712 84.1226 65.0662 88.3956C56.8612 92.6686 53.6105 90.8101 49.4211 93.6066C44.6406 96.8895 46.2399 103.629 42.5894 100.364" fill="#DF0C18"/>
<path d="M47.1445 21.0697L187.672 45.1097" stroke="#1D1D1B" stroke-linecap="round" stroke-linejoin="round"/>
<path d="M104.509 136.076L98.0254 135.208V134.218L100.65 134.565V133.297L101.902 133.471V134.739L104.509 135.086V136.076ZM101.259 140.314C100.594 140.305 99.9562 140.052 99.4659 139.604C98.9756 139.156 98.6671 138.543 98.599 137.883C98.599 136.649 99.6942 135.955 101.259 136.146C101.923 136.155 102.561 136.408 103.052 136.856C103.542 137.304 103.85 137.917 103.918 138.577C103.918 139.828 102.841 140.523 101.259 140.297V140.314ZM100.876 143.024L107.013 143.858V144.883L99.6073 143.893V140.766L100.876 140.94V143.024ZM101.241 139.272C102.111 139.394 102.719 139.064 102.719 138.369C102.68 138.007 102.507 137.672 102.233 137.431C101.96 137.19 101.606 137.06 101.241 137.066C100.372 136.945 99.7811 137.275 99.7811 137.969C99.8035 138.343 99.9702 138.693 100.246 138.945C100.522 139.198 100.885 139.334 101.259 139.324L101.241 139.272ZM108.195 137.761V138.803L106.63 138.595V142.295L105.379 142.121V133.888L106.63 134.061V137.535L108.195 137.761Z" fill="#1D1D1B"/>
<path d="M114.957 136.267V143.528L109.742 142.833V135.572L114.957 136.267ZM111.029 136.736V141.947L113.723 142.312V137.101L111.029 136.736ZM118.26 135.659V146.689L116.991 146.516V135.486L118.26 135.659Z" fill="#1D1D1B"/>
<path d="M126.309 143.25C125.145 142.695 124.229 141.73 123.736 140.54C123.504 141.108 123.135 141.61 122.662 142.001C122.189 142.392 121.626 142.66 121.024 142.781L120.381 141.704C121.13 141.577 121.811 141.191 122.304 140.613C122.796 140.035 123.07 139.302 123.075 138.543V138.161L120.763 137.813V136.806L126.639 137.605V138.612L124.344 138.299V138.682C124.397 139.467 124.665 140.223 125.119 140.866C125.572 141.509 126.195 142.016 126.917 142.329L126.309 143.25ZM129.785 146.984V148.009L122.38 147.019V143.545L123.632 143.719V146.133L129.785 146.984ZM128.256 140.036V137.101L129.507 137.275V145.3L128.256 145.126V141.061L126.256 140.801V139.759L128.256 140.036Z" fill="#1D1D1B"/>
<path d="M141.52 144.153V145.143L131.576 143.806V142.816L133.906 143.128V141.669C133.554 141.521 133.248 141.282 133.019 140.977C132.79 140.672 132.646 140.311 132.602 139.932C132.602 138.647 134.114 138.074 136.513 138.386C138.912 138.699 140.424 139.689 140.424 140.974C140.405 141.332 140.263 141.672 140.022 141.938C139.782 142.203 139.457 142.378 139.103 142.434V143.875L141.52 144.153ZM140.32 147.627C140.32 148.895 138.912 149.364 136.53 149.086C134.149 148.808 132.741 147.87 132.741 146.602C132.741 145.334 134.166 144.865 136.53 145.143C138.895 145.421 140.32 146.411 140.32 147.662V147.627ZM133.906 140.036C133.906 140.749 134.896 141.27 136.53 141.496C138.165 141.721 139.138 141.496 139.138 140.749C139.138 140.002 138.147 139.515 136.53 139.307C134.914 139.098 133.906 139.324 133.906 140.036ZM139.121 147.488C139.121 146.828 138.217 146.359 136.6 146.133C134.983 145.908 134.097 146.133 134.097 146.811C134.097 147.488 135.001 147.94 136.6 148.166C138.199 148.391 139.121 148.235 139.121 147.488ZM135.261 143.302L137.956 143.667V142.555C137.51 142.589 137.063 142.589 136.617 142.555C136.159 142.494 135.706 142.401 135.261 142.277V143.389V143.302Z" fill="#1D1D1B"/>
<path d="M43.7748 166.796H50.2228V165.184H48.1298C47.6878 165.184 47.0508 165.236 46.5698 165.288C48.3248 163.572 49.7678 161.7 49.7678 159.958C49.7678 158.164 48.5588 156.994 46.7388 156.994C45.4258 156.994 44.5678 157.514 43.6838 158.45L44.7238 159.49C45.2048 158.957 45.7898 158.502 46.4918 158.502C47.4018 158.502 47.9348 159.087 47.9348 160.062C47.9348 161.544 46.3878 163.351 43.7748 165.691V166.796ZM53.0031 162.844L54.4981 160.452C54.7711 159.932 55.0311 159.399 55.2651 158.892H55.3171C55.2911 159.451 55.2391 160.322 55.2391 160.881V162.844H53.0031ZM58.1641 162.844H57.0201V157.176H54.7321L51.1441 163V164.3H55.2391V166.796H57.0201V164.3H58.1641V162.844ZM59.9694 161.284C61.2824 160.621 61.9324 159.62 61.9324 158.281C61.9324 157.163 61.4904 156.513 60.6714 156.513C60.0604 156.513 59.6314 156.942 59.6314 157.605C59.6314 158.229 60.1124 158.606 60.6714 158.606C60.7104 158.606 60.7624 158.606 60.8014 158.593C60.7884 159.451 60.3724 159.984 59.5404 160.452L59.9694 161.284ZM63.2194 161.284C64.5324 160.621 65.1824 159.62 65.1824 158.281C65.1824 157.163 64.7404 156.513 63.9214 156.513C63.3104 156.513 62.8814 156.942 62.8814 157.605C62.8814 158.229 63.3624 158.606 63.9214 158.606C63.9604 158.606 64.0124 158.606 64.0514 158.593C64.0384 159.451 63.6224 159.984 62.7904 160.452L63.2194 161.284Z" fill="#1D1D1B"/>
<path d="M193.206 151.007H198.991V149.46H197.184V141.387H195.767C195.156 141.764 194.493 142.011 193.531 142.193V143.376H195.273V149.46H193.206V151.007ZM203.617 151.189C205.567 151.189 206.854 150.071 206.854 148.615C206.854 147.302 206.126 146.522 205.242 146.041V145.976C205.879 145.521 206.477 144.728 206.477 143.779C206.477 142.245 205.385 141.218 203.682 141.218C202.005 141.218 200.783 142.206 200.783 143.753C200.783 144.78 201.316 145.508 202.057 146.041V146.106C201.16 146.587 200.406 147.38 200.406 148.615C200.406 150.123 201.784 151.189 203.617 151.189ZM204.228 145.508C203.214 145.105 202.473 144.663 202.473 143.753C202.473 142.986 202.993 142.557 203.643 142.557C204.449 142.557 204.917 143.116 204.917 143.896C204.917 144.468 204.696 145.014 204.228 145.508ZM203.669 149.837C202.772 149.837 202.057 149.278 202.057 148.407C202.057 147.692 202.421 147.042 202.941 146.626C204.189 147.133 205.073 147.549 205.073 148.55C205.073 149.382 204.475 149.837 203.669 149.837ZM208.893 145.495C210.206 144.832 210.856 143.831 210.856 142.492C210.856 141.374 210.414 140.724 209.595 140.724C208.984 140.724 208.555 141.153 208.555 141.816C208.555 142.44 209.036 142.817 209.595 142.817C209.634 142.817 209.686 142.817 209.725 142.804C209.712 143.662 209.296 144.195 208.464 144.663L208.893 145.495ZM212.143 145.495C213.456 144.832 214.106 143.831 214.106 142.492C214.106 141.374 213.664 140.724 212.845 140.724C212.234 140.724 211.805 141.153 211.805 141.816C211.805 142.44 212.286 142.817 212.845 142.817C212.884 142.817 212.936 142.817 212.975 142.804C212.962 143.662 212.546 144.195 211.714 144.663L212.143 145.495Z" fill="#1D1D1B"/>
<path d="M231.449 77.5492H237.234V76.0022H235.427V67.9292H234.01C233.399 68.3062 232.736 68.5532 231.774 68.7352V69.9182H233.516V76.0022H231.449V77.5492ZM242.107 76.2882C241.301 76.2882 240.651 75.6122 240.469 73.8572C240.95 73.1162 241.522 72.8432 242.042 72.8432C242.874 72.8432 243.407 73.3762 243.407 74.5202C243.407 75.6902 242.822 76.2882 242.107 76.2882ZM245.019 68.8392C244.434 68.2412 243.576 67.7472 242.406 67.7472C240.469 67.7472 238.688 69.2812 238.688 72.8692C238.688 76.2622 240.313 77.7312 242.146 77.7312C243.784 77.7312 245.162 76.4962 245.162 74.5202C245.162 72.4532 244.018 71.4912 242.406 71.4912C241.782 71.4912 240.95 71.8812 240.43 72.5182C240.508 70.1132 241.418 69.2812 242.523 69.2812C243.082 69.2812 243.667 69.5932 244.005 69.9832L245.019 68.8392ZM247.136 72.0372C248.449 71.3742 249.099 70.3732 249.099 69.0342C249.099 67.9162 248.657 67.2662 247.838 67.2662C247.227 67.2662 246.798 67.6952 246.798 68.3582C246.798 68.9822 247.279 69.3592 247.838 69.3592C247.877 69.3592 247.929 69.3592 247.968 69.3462C247.955 70.2042 247.539 70.7372 246.707 71.2052L247.136 72.0372ZM250.386 72.0372C251.699 71.3742 252.349 70.3732 252.349 69.0342C252.349 67.9162 251.907 67.2662 251.088 67.2662C250.477 67.2662 250.048 67.6952 250.048 68.3582C250.048 68.9822 250.529 69.3592 251.088 69.3592C251.127 69.3592 251.179 69.3592 251.218 69.3462C251.205 70.2042 250.789 70.7372 249.957 71.2052L250.386 72.0372Z" fill="#1D1D1B"/>
</g>
<defs>
<clipPath id="clip0">
<rect width="270" height="198" fill="white"/>
</clipPath>
</defs>
</svg>
