<svg width="223" height="248" viewBox="0 0 223 248" fill="none" xmlns="http://www.w3.org/2000/svg">
<g clip-path="url(#clip0)">
<path d="M132.887 211.722C132.312 211.722 131.738 211.69 131.167 211.626L13.8237 198.481C10.034 198.06 6.53261 196.253 3.99052 193.405C1.44844 190.557 0.0445315 186.869 0.0479032 183.048V26.8861C0.0393945 23.587 1.08278 20.3715 3.02591 17.7084C4.96904 15.0453 7.71028 13.074 10.8499 12.0818L46.4547 0.724932C48.53 0.0646593 50.7209 -0.149444 52.8844 0.0966528L170.227 13.2417C174.008 13.6734 177.498 15.4856 180.03 18.3323C182.563 21.179 183.96 24.8606 183.955 28.6742V184.836C183.964 188.135 182.92 191.351 180.977 194.014C179.034 196.677 176.293 198.648 173.153 199.64L137.58 211.03C136.062 211.512 134.479 211.756 132.887 211.754V211.722Z" fill="#1D1D1B"/>
<path d="M133.996 207.357L4.54883 192.858V18.8799L133.996 33.3781V207.357Z" fill="white" stroke="#1D1D1B" stroke-linecap="round" stroke-linejoin="round"/>
<path d="M179.438 192.858L133.996 207.357V33.3781L179.438 18.8799V192.858Z" fill="#FCC55A" stroke="#1D1D1B" stroke-linecap="round" stroke-linejoin="round"/>
<path d="M179.438 18.8799L133.996 33.3781L4.54883 18.8799L50.0072 4.38165L179.438 18.8799Z" fill="white" stroke="#1D1D1B" stroke-linecap="round" stroke-linejoin="round"/>
<path fill-rule="evenodd" clip-rule="evenodd" d="M37.0832 114.23C37.0832 114.23 33.9969 105.354 37.3565 101.343C40.716 97.3313 49.4444 93.739 53.2541 92.0636C57.0637 90.3883 68.8944 83.8319 72.2379 77.0982C75.5814 70.3646 79.2142 65.6447 84.5348 66.9495C89.8554 68.2544 97.3943 72.3139 100.448 83.9608C103.503 95.6076 95.6262 109.123 95.6262 109.123C95.6262 109.123 101.799 109.22 102.619 119.208C103.438 129.195 96.1888 138.893 96.1888 138.893C96.1888 138.893 102.056 141.728 98.9857 151.619C95.9155 161.51 89.5018 164.974 83.072 163.411C76.6423 161.848 63.7828 156.967 61.2752 149.976C61.2752 149.976 62.111 146.255 67.4317 150.089C72.7523 153.923 82.7827 158.031 86.9942 150.363C91.2057 142.695 87.2514 142.582 84.1812 142.421C81.111 142.26 70.5019 140.81 69.9554 138.104C69.4088 135.397 70.2286 134.882 72.7523 134.882C75.276 134.882 86.4316 136.831 88.9392 131.821C91.4468 126.811 93.3918 119.208 90.0483 118.386C86.7049 117.564 85.0331 121.35 79.7607 121.479C74.4883 121.608 69.4088 121.479 67.721 117.983C66.0332 114.488 71.6271 115.035 73.8775 114.455C76.1279 113.875 86.1583 109.623 88.9392 102.164C91.7201 94.7056 87.814 86.1999 86.4316 85.8777C85.0492 85.5556 76.6584 93.0141 66.0493 98.5556C55.4402 104.097 51.2448 101.681 45.8598 105.402C39.6873 109.655 41.7448 118.386 37.035 114.165" fill="#DF0C18"/>
<path d="M32.5352 9.93933L159.025 25.388" stroke="#1D1D1B" stroke-linecap="round" stroke-linejoin="round"/>
<path d="M95.5458 190.813L89.4375 190.152V189.234L91.8969 189.508V188.348L93.1346 188.477V189.637L95.5458 189.911V190.829V190.813ZM92.5399 194.743C91.922 194.764 91.3188 194.552 90.8488 194.15C90.3788 193.747 90.076 193.183 90.0001 192.568C90.0001 191.441 91.0128 190.78 92.4916 190.958C93.1068 190.941 93.706 191.154 94.1726 191.556C94.6392 191.959 94.9396 192.52 95.0153 193.132C95.1278 194.26 94.1152 194.92 92.6202 194.743H92.5399ZM92.3309 197.288L98.1016 197.917V198.851L91.1253 198.142V195.243L92.3309 195.323V197.288ZM92.6363 193.857C93.4561 193.954 94.0187 193.632 94.0026 193.003C93.9586 192.669 93.7899 192.364 93.5306 192.148C93.2712 191.933 92.9403 191.824 92.6042 191.844C91.7844 191.763 91.2378 192.069 91.2378 192.697C91.2815 193.026 91.4455 193.327 91.698 193.541C91.9505 193.756 92.2734 193.868 92.6042 193.857H92.6363ZM99.0661 192.327V193.31L97.6033 193.148V196.515L96.4299 196.386L96.3334 188.88L97.5069 189.008V192.23L99.0661 192.327Z" fill="#1D1D1B"/>
<path d="M105.447 190.764L105.528 197.385L100.705 196.854L100.625 190.233L105.447 190.764ZM101.766 191.28V196.113L104.306 196.386V191.554L101.766 191.28ZM108.55 190.152L108.678 200.204L107.489 200.075L107.344 190.088L108.55 190.152Z" fill="#1D1D1B"/>
<path d="M116.202 196.902C115.11 196.437 114.237 195.573 113.759 194.485C113.539 195.013 113.194 195.48 112.755 195.845C112.315 196.21 111.793 196.462 111.235 196.58L110.624 195.613C111.321 195.496 111.955 195.136 112.413 194.597C112.872 194.058 113.126 193.374 113.132 192.665V192.327L110.946 192.085V191.167L116.443 191.699V192.617L114.289 192.391V192.73C114.361 193.442 114.629 194.121 115.063 194.69C115.497 195.259 116.081 195.695 116.748 195.951L116.202 196.902ZM119.497 200.236V201.171L112.537 200.414V197.288L113.71 197.417V199.608L119.497 200.236ZM117.986 193.793V191.119L119.16 191.248L119.256 198.577L118.05 198.513V194.808L116.17 194.598V193.648L117.986 193.793Z" fill="#1D1D1B"/>
<path d="M130.508 197.417V198.319L121.152 197.305V196.402L123.371 196.644V195.307C123.036 195.179 122.744 194.96 122.526 194.676C122.307 194.392 122.171 194.053 122.133 193.696C122.133 192.52 123.531 191.956 125.798 192.214C128.064 192.472 129.495 193.326 129.511 194.502C129.496 194.838 129.364 195.159 129.138 195.409C128.912 195.659 128.606 195.823 128.273 195.871V197.192L130.508 197.417ZM129.415 200.639C129.415 201.799 128.113 202.25 125.878 202.057C123.644 201.863 122.31 201.026 122.294 199.866C122.278 198.706 123.612 198.255 125.83 198.448C128.048 198.642 129.399 199.495 129.415 200.639ZM123.322 193.825C123.322 194.469 124.255 194.937 125.814 195.098C127.373 195.259 128.273 195.001 128.257 194.357C128.241 193.712 127.325 193.261 125.782 193.084C124.239 192.907 123.322 193.181 123.322 193.809V193.825ZM128.145 200.51C128.145 199.914 127.277 199.495 125.766 199.334C124.255 199.173 123.403 199.334 123.419 199.995C123.435 200.655 124.271 201.01 125.782 201.171C127.293 201.332 128.225 201.122 128.225 200.51H128.145ZM124.48 196.757L127.02 197.031V196.016C126.602 196.047 126.183 196.047 125.766 196.016C125.332 195.97 124.903 195.895 124.48 195.79V196.805V196.757Z" fill="#1D1D1B"/>
<path d="M42.2397 220.15H48.6877V218.538H46.5947C46.1527 218.538 45.5157 218.59 45.0347 218.642C46.7897 216.926 48.2327 215.054 48.2327 213.312C48.2327 211.518 47.0237 210.348 45.2037 210.348C43.8907 210.348 43.0327 210.868 42.1487 211.804L43.1887 212.844C43.6697 212.311 44.2547 211.856 44.9567 211.856C45.8667 211.856 46.3997 212.441 46.3997 213.416C46.3997 214.898 44.8527 216.705 42.2397 219.045V220.15ZM53.1709 220.332C55.1209 220.332 56.4209 218.616 56.4209 215.301C56.4209 211.986 55.1209 210.348 53.1709 210.348C51.2079 210.348 49.9079 211.973 49.9079 215.301C49.9079 218.616 51.2079 220.332 53.1709 220.332ZM53.1709 218.837C52.3389 218.837 51.7149 218.005 51.7149 215.301C51.7149 212.61 52.3389 211.83 53.1709 211.83C53.9899 211.83 54.6139 212.61 54.6139 215.301C54.6139 218.005 53.9899 218.837 53.1709 218.837ZM58.4342 214.638C59.7472 213.975 60.3972 212.974 60.3972 211.635C60.3972 210.517 59.9552 209.867 59.1362 209.867C58.5252 209.867 58.0962 210.296 58.0962 210.959C58.0962 211.583 58.5772 211.96 59.1362 211.96C59.1752 211.96 59.2272 211.96 59.2662 211.947C59.2532 212.805 58.8372 213.338 58.0052 213.806L58.4342 214.638ZM61.6842 214.638C62.9972 213.975 63.6472 212.974 63.6472 211.635C63.6472 210.517 63.2052 209.867 62.3862 209.867C61.7752 209.867 61.3462 210.296 61.3462 210.959C61.3462 211.583 61.8272 211.96 62.3862 211.96C62.4252 211.96 62.4772 211.96 62.5162 211.947C62.5032 212.805 62.0872 213.338 61.2552 213.806L61.6842 214.638Z" fill="#1D1D1B"/>
<path d="M165.812 214.64H171.597V213.093H169.79V205.02H168.373C167.762 205.397 167.099 205.644 166.137 205.826V207.009H167.879V213.093H165.812V214.64ZM172.96 214.64H179.408V213.028H177.315C176.873 213.028 176.236 213.08 175.755 213.132C177.51 211.416 178.953 209.544 178.953 207.802C178.953 206.008 177.744 204.838 175.924 204.838C174.611 204.838 173.753 205.358 172.869 206.294L173.909 207.334C174.39 206.801 174.975 206.346 175.677 206.346C176.587 206.346 177.12 206.931 177.12 207.906C177.12 209.388 175.573 211.195 172.96 213.535V214.64ZM181.5 209.128C182.813 208.465 183.463 207.464 183.463 206.125C183.463 205.007 183.021 204.357 182.202 204.357C181.591 204.357 181.162 204.786 181.162 205.449C181.162 206.073 181.643 206.45 182.202 206.45C182.241 206.45 182.293 206.45 182.332 206.437C182.319 207.295 181.903 207.828 181.071 208.296L181.5 209.128ZM184.75 209.128C186.063 208.465 186.713 207.464 186.713 206.125C186.713 205.007 186.271 204.357 185.452 204.357C184.841 204.357 184.412 204.786 184.412 205.449C184.412 206.073 184.893 206.45 185.452 206.45C185.491 206.45 185.543 206.45 185.582 206.437C185.569 207.295 185.153 207.828 184.321 208.296L184.75 209.128Z" fill="#1D1D1B"/>
<path d="M186.926 107.176H193.374V105.564H191.281C190.839 105.564 190.202 105.616 189.721 105.668C191.476 103.952 192.919 102.08 192.919 100.338C192.919 98.5444 191.71 97.3744 189.89 97.3744C188.577 97.3744 187.719 97.8944 186.835 98.8304L187.875 99.8704C188.356 99.3374 188.941 98.8824 189.643 98.8824C190.553 98.8824 191.086 99.4674 191.086 100.442C191.086 101.924 189.539 103.731 186.926 106.071V107.176ZM197.844 107.358C199.794 107.358 201.081 106.24 201.081 104.784C201.081 103.471 200.353 102.691 199.469 102.21V102.145C200.106 101.69 200.704 100.897 200.704 99.9484C200.704 98.4144 199.612 97.3874 197.909 97.3874C196.232 97.3874 195.01 98.3754 195.01 99.9224C195.01 100.949 195.543 101.677 196.284 102.21V102.275C195.387 102.756 194.633 103.549 194.633 104.784C194.633 106.292 196.011 107.358 197.844 107.358ZM198.455 101.677C197.441 101.274 196.7 100.832 196.7 99.9224C196.7 99.1554 197.22 98.7264 197.87 98.7264C198.676 98.7264 199.144 99.2854 199.144 100.065C199.144 100.637 198.923 101.183 198.455 101.677ZM197.896 106.006C196.999 106.006 196.284 105.447 196.284 104.576C196.284 103.861 196.648 103.211 197.168 102.795C198.416 103.302 199.3 103.718 199.3 104.719C199.3 105.551 198.702 106.006 197.896 106.006ZM203.121 101.664C204.434 101.001 205.084 100 205.084 98.6614C205.084 97.5434 204.642 96.8934 203.823 96.8934C203.212 96.8934 202.783 97.3224 202.783 97.9854C202.783 98.6094 203.264 98.9864 203.823 98.9864C203.862 98.9864 203.914 98.9864 203.953 98.9734C203.94 99.8314 203.524 100.364 202.692 100.832L203.121 101.664ZM206.371 101.664C207.684 101.001 208.334 100 208.334 98.6614C208.334 97.5434 207.892 96.8934 207.073 96.8934C206.462 96.8934 206.033 97.3224 206.033 97.9854C206.033 98.6094 206.514 98.9864 207.073 98.9864C207.112 98.9864 207.164 98.9864 207.203 98.9734C207.19 99.8314 206.774 100.364 205.942 100.832L206.371 101.664Z" fill="#1D1D1B"/>
</g>
<defs>
<clipPath id="clip0">
<rect width="223" height="248" fill="white"/>
</clipPath>
</defs>
</svg>
