<svg width="214" height="182" viewBox="0 0 214 182" fill="none" xmlns="http://www.w3.org/2000/svg">
<g clip-path="url(#clip0)">
<path d="M102.125 155.921C100.947 155.922 99.7736 155.778 98.6308 155.492L10.9096 133.534C7.79949 132.748 5.04083 130.944 3.07171 128.409C1.10259 125.874 0.0359202 122.752 0.0411022 119.54V47.1248C0.0317924 44.4435 0.773507 41.8133 2.18203 39.5328C3.59055 37.2523 5.60945 35.413 8.00948 34.2236L73.2342 1.52109C76.3075 -0.0185116 79.8297 -0.406002 83.1636 0.428706L170.885 22.3871C174.004 23.1629 176.773 24.9629 178.751 27.4994C180.728 30.0359 181.8 33.1628 181.795 36.3807V108.741C181.805 111.421 181.066 114.05 179.66 116.33C178.254 118.611 176.238 120.451 173.84 121.642L108.574 154.372C106.575 155.37 104.372 155.891 102.139 155.893L102.125 155.921Z" fill="#1D1D1B"/>
<path d="M103.34 152.589L3.9082 127.699V40.5843L103.34 65.4741V152.589Z" fill="white" stroke="#1D1D1B" stroke-miterlimit="10"/>
<path d="M177.915 115.254L103.341 152.589V65.4741L177.915 28.1393V115.254Z" fill="#FCC55A" stroke="#1D1D1B" stroke-linecap="round" stroke-linejoin="round"/>
<path d="M177.914 28.1393L103.34 65.4741L3.9082 40.5843L78.4823 3.24951L177.914 28.1393Z" fill="white" stroke="#1D1D1B" stroke-linecap="round" stroke-linejoin="round"/>
<path fill-rule="evenodd" clip-rule="evenodd" d="M29.5675 97.2363C29.5675 97.2363 27.6618 91.7882 29.7333 89.3822C31.8048 86.9761 37.1631 84.7222 39.5108 83.6852C41.8585 82.6481 49.1778 78.6242 51.1802 74.4898C53.1827 70.3553 55.4613 67.4653 58.7343 68.2535C62.0073 69.0416 66.6198 71.5444 68.5118 78.7072C70.4038 85.8699 65.5841 94.1527 65.5841 94.1527C65.5841 94.1527 69.3818 94.1527 69.879 100.348C70.3761 106.542 65.9293 112.433 65.9293 112.433C65.9293 112.433 69.5337 114.175 67.6418 120.246C65.7498 126.316 61.8139 128.445 57.8643 127.491C53.9146 126.537 46.0291 123.578 44.4686 119.195C44.4686 119.195 44.9795 116.913 48.2525 119.195C51.5255 121.476 57.6847 124.076 60.2672 119.361C62.8497 114.645 60.4191 114.59 58.541 114.479C56.6628 114.369 50.1307 113.456 49.7992 111.825C49.4678 110.193 49.9649 109.806 51.5117 109.833C53.0584 109.861 59.922 111.036 61.4549 107.953C62.9878 104.869 64.2169 100.209 62.1316 99.6561C60.0462 99.103 59.0519 101.481 55.8066 101.551C52.5612 101.62 49.4402 101.551 48.4044 99.4072C47.3687 97.2639 50.8073 97.5958 52.1884 97.2363C53.5694 96.8768 59.7286 94.2495 61.4549 89.7002C63.1811 85.1509 60.7644 79.9102 59.922 79.7028C59.0796 79.4954 53.9008 84.2521 47.4101 87.6537C40.9194 91.0553 38.3093 89.5758 34.9811 91.802C31.1833 94.4154 32.4538 99.7806 29.5537 97.181" fill="#DF0C18"/>
<path d="M46.0293 19.497L145.461 44.3869" stroke="#1D1D1B" stroke-linecap="round" stroke-linejoin="round"/>
<path d="M70.0027 134.156L64.8516 132.953V132.165L66.9369 132.649V131.64L67.9312 131.875V132.884L70.0027 133.368V134.156ZM67.4202 137.267C66.8768 137.199 66.3725 136.948 65.9889 136.557C65.6054 136.165 65.3652 135.656 65.3073 135.11C65.3073 134.129 66.1773 133.658 67.4202 133.949C67.9627 134.02 68.4657 134.271 68.8488 134.662C69.2319 135.053 69.4729 135.561 69.5332 136.106C69.547 137.115 68.6769 137.572 67.4202 137.281V137.267ZM67.1302 139.452L72.0051 140.545V141.36L66.1221 139.978V137.447L67.1302 137.779V139.494V139.452ZM67.4202 136.493C68.1107 136.659 68.5941 136.493 68.5941 135.885C68.5467 135.593 68.4071 135.324 68.1958 135.117C67.9845 134.911 67.7127 134.777 67.4202 134.737C66.7297 134.571 66.2602 134.737 66.2602 135.345C66.2934 135.641 66.4267 135.916 66.6377 136.124C66.8488 136.333 67.125 136.463 67.4202 136.493ZM72.9442 135.829V136.659L71.7013 136.369V139.314L70.707 139.079V132.525L71.7013 132.76V135.525L72.9442 135.829Z" fill="#1D1D1B"/>
<path d="M78.3032 135.124V140.904L74.1602 139.95V134.17L78.3032 135.124ZM75.1821 135.124V139.272L77.3779 139.881V135.733L75.1821 135.124ZM80.9271 134.834V143.614L79.9189 143.379V134.599L80.9271 134.834Z" fill="#1D1D1B"/>
<path d="M87.3342 141.582C86.4051 141.054 85.6839 140.225 85.2903 139.231C85.1054 139.662 84.8075 140.034 84.4282 140.309C84.0489 140.585 83.6024 140.752 83.136 140.793L82.625 139.895C83.2099 139.859 83.7586 139.599 84.1573 139.169C84.5559 138.739 84.7737 138.172 84.7655 137.585V137.281L82.9012 136.853V136.051L87.569 137.143V137.945L85.7461 137.516V137.779C85.7991 138.426 86.0142 139.049 86.3714 139.59C86.7287 140.132 87.2166 140.574 87.7899 140.876L87.3342 141.582ZM90.0962 144.831V145.647L84.2131 144.264V141.499L85.2075 141.734V143.656L90.0962 144.831ZM88.8671 139.162V136.825L89.8062 137.019V143.407L88.8119 143.172V139.936L87.2237 139.563V138.733L88.8671 139.162Z" fill="#1D1D1B"/>
<path d="M99.4735 143.49V144.278L91.5742 142.439V141.651L93.4524 142.093V140.932C93.1662 140.782 92.9216 140.563 92.7408 140.295C92.56 140.027 92.4486 139.719 92.4166 139.397C92.4166 138.374 93.6181 138.014 95.5239 138.47C97.4297 138.927 98.6311 139.853 98.6311 140.849C98.6243 141.127 98.5119 141.391 98.3169 141.589C98.1219 141.787 97.859 141.903 97.5816 141.914V143.061L99.4735 143.49ZM98.5207 146.255C98.5207 147.265 97.402 147.555 95.5101 147.127C93.6181 146.698 92.4995 145.868 92.4995 144.859C92.4995 143.849 93.6319 143.559 95.5101 143.988C97.3882 144.416 98.4516 145.191 98.4516 146.186L98.5207 146.255ZM93.4524 139.687C93.4524 140.254 94.2396 140.752 95.5377 141.07C96.8358 141.388 97.6092 141.236 97.6092 140.669C97.6092 140.102 96.822 139.618 95.5377 139.286C94.2534 138.954 93.3833 139.065 93.3833 139.618L93.4524 139.687ZM97.5263 146.02C97.5263 145.495 96.8082 145.052 95.5239 144.748C94.2396 144.444 93.5352 144.568 93.5352 145.094C93.5352 145.619 94.2534 146.062 95.5239 146.366C96.7944 146.67 97.4573 146.49 97.4573 145.951L97.5263 146.02ZM94.4605 142.384L96.6011 142.881V141.927C96.243 141.898 95.8876 141.843 95.5377 141.761C95.1716 141.675 94.8118 141.564 94.4605 141.43V142.315V142.384Z" fill="#1D1D1B"/>
<path d="M29.3256 160.232H35.7736V158.62H33.6806C33.2386 158.62 32.6016 158.672 32.1206 158.724C33.8756 157.008 35.3186 155.136 35.3186 153.394C35.3186 151.6 34.1096 150.43 32.2896 150.43C30.9766 150.43 30.1186 150.95 29.2346 151.886L30.2746 152.926C30.7556 152.393 31.3406 151.938 32.0426 151.938C32.9526 151.938 33.4856 152.523 33.4856 153.498C33.4856 154.98 31.9386 156.787 29.3256 159.127V160.232ZM40.2569 160.414C42.2069 160.414 43.5069 158.698 43.5069 155.383C43.5069 152.068 42.2069 150.43 40.2569 150.43C38.2939 150.43 36.9939 152.055 36.9939 155.383C36.9939 158.698 38.2939 160.414 40.2569 160.414ZM40.2569 158.919C39.4249 158.919 38.8009 158.087 38.8009 155.383C38.8009 152.692 39.4249 151.912 40.2569 151.912C41.0759 151.912 41.6999 152.692 41.6999 155.383C41.6999 158.087 41.0759 158.919 40.2569 158.919ZM45.5201 154.72C46.8331 154.057 47.4831 153.056 47.4831 151.717C47.4831 150.599 47.0411 149.949 46.2221 149.949C45.6111 149.949 45.1821 150.378 45.1821 151.041C45.1821 151.665 45.6631 152.042 46.2221 152.042C46.2611 152.042 46.3131 152.042 46.3521 152.029C46.3391 152.887 45.9231 153.42 45.0911 153.888L45.5201 154.72ZM48.7701 154.72C50.0831 154.057 50.7331 153.056 50.7331 151.717C50.7331 150.599 50.2911 149.949 49.4721 149.949C48.8611 149.949 48.4321 150.378 48.4321 151.041C48.4321 151.665 48.9131 152.042 49.4721 152.042C49.5111 152.042 49.5631 152.042 49.6021 152.029C49.5891 152.887 49.1731 153.42 48.3411 153.888L48.7701 154.72Z" fill="#1D1D1B"/>
<path d="M153.211 146.239H158.996V144.692H157.189V136.619H155.772C155.161 136.996 154.498 137.243 153.536 137.425V138.608H155.278V144.692H153.211V146.239ZM163.622 146.421C165.572 146.421 166.859 145.303 166.859 143.847C166.859 142.534 166.131 141.754 165.247 141.273V141.208C165.884 140.753 166.482 139.96 166.482 139.011C166.482 137.477 165.39 136.45 163.687 136.45C162.01 136.45 160.788 137.438 160.788 138.985C160.788 140.012 161.321 140.74 162.062 141.273V141.338C161.165 141.819 160.411 142.612 160.411 143.847C160.411 145.355 161.789 146.421 163.622 146.421ZM164.233 140.74C163.219 140.337 162.478 139.895 162.478 138.985C162.478 138.218 162.998 137.789 163.648 137.789C164.454 137.789 164.922 138.348 164.922 139.128C164.922 139.7 164.701 140.246 164.233 140.74ZM163.674 145.069C162.777 145.069 162.062 144.51 162.062 143.639C162.062 142.924 162.426 142.274 162.946 141.858C164.194 142.365 165.078 142.781 165.078 143.782C165.078 144.614 164.48 145.069 163.674 145.069ZM168.898 140.727C170.211 140.064 170.861 139.063 170.861 137.724C170.861 136.606 170.419 135.956 169.6 135.956C168.989 135.956 168.56 136.385 168.56 137.048C168.56 137.672 169.041 138.049 169.6 138.049C169.639 138.049 169.691 138.049 169.73 138.036C169.717 138.894 169.301 139.427 168.469 139.895L168.898 140.727ZM172.148 140.727C173.461 140.064 174.111 139.063 174.111 137.724C174.111 136.606 173.669 135.956 172.85 135.956C172.239 135.956 171.81 136.385 171.81 137.048C171.81 137.672 172.291 138.049 172.85 138.049C172.889 138.049 172.941 138.049 172.98 138.036C172.967 138.894 172.551 139.427 171.719 139.895L172.148 140.727Z" fill="#1D1D1B"/>
<path d="M183.593 81.8016H189.378V80.2546H187.571V72.1816H186.154C185.543 72.5586 184.88 72.8056 183.918 72.9876V74.1706H185.66V80.2546H183.593V81.8016ZM193.745 81.9836C195.578 81.9836 197.125 80.9566 197.125 79.1886C197.125 77.9276 196.293 77.1216 195.201 76.8226V76.7576C196.228 76.3546 196.813 75.6006 196.813 74.5606C196.813 72.9096 195.552 71.9996 193.693 71.9996C192.562 71.9996 191.639 72.4546 190.807 73.1826L191.782 74.3526C192.354 73.8326 192.913 73.5076 193.602 73.4946C194.421 73.5076 194.889 73.9496 194.889 74.7036C194.889 75.5616 194.317 76.1726 192.549 76.1726V77.5506C194.642 77.5506 195.201 78.1356 195.201 79.0846C195.201 79.9426 194.538 80.4236 193.563 80.4236C192.692 80.4236 191.99 79.9946 191.418 79.4356L190.521 80.6446C191.197 81.4116 192.224 81.9836 193.745 81.9836ZM199.281 76.2896C200.594 75.6266 201.244 74.6256 201.244 73.2866C201.244 72.1686 200.802 71.5186 199.983 71.5186C199.372 71.5186 198.943 71.9476 198.943 72.6106C198.943 73.2346 199.424 73.6116 199.983 73.6116C200.022 73.6116 200.074 73.6116 200.113 73.5986C200.1 74.4566 199.684 74.9896 198.852 75.4576L199.281 76.2896ZM202.531 76.2896C203.844 75.6266 204.494 74.6256 204.494 73.2866C204.494 72.1686 204.052 71.5186 203.233 71.5186C202.622 71.5186 202.193 71.9476 202.193 72.6106C202.193 73.2346 202.674 73.6116 203.233 73.6116C203.272 73.6116 203.324 73.6116 203.363 73.5986C203.35 74.4566 202.934 74.9896 202.102 75.4576L202.531 76.2896Z" fill="#1D1D1B"/>
</g>
<defs>
<clipPath id="clip0">
<rect width="214" height="182" fill="white"/>
</clipPath>
</defs>
</svg>
