<svg width="216" height="49" viewBox="0 0 216 49" fill="none" xmlns="http://www.w3.org/2000/svg">
<g filter="url(#filter0_d)">
<path d="M62.2791 33.3516C60.744 33.3398 59.4373 32.9648 58.3592 32.2266C57.2928 31.4883 56.5194 30.457 56.0389 29.1328C55.5702 27.7969 55.4295 26.2793 55.617 24.5801L55.7752 23.2793C56.162 20.127 57.117 17.7188 58.6405 16.0547C60.1756 14.3789 62.1268 13.5703 64.494 13.6289C66.2284 13.6758 67.5877 14.2207 68.5721 15.2637C69.5682 16.2949 70.1483 17.7422 70.3123 19.6055C70.4061 20.7188 70.3827 21.8086 70.242 22.875L69.9081 25.1602H60.4159C60.3573 25.6641 60.3397 26.1504 60.3631 26.6191C60.4452 28.3066 61.2713 29.168 62.8416 29.2031C64.3065 29.25 65.7245 28.6934 67.0956 27.5332L68.7303 30.5566C68.0858 31.4355 67.1834 32.127 66.0233 32.6309C64.8748 33.1348 63.6268 33.375 62.2791 33.3516ZM64.0194 17.7246C62.6248 17.666 61.6522 18.5566 61.1014 20.3965L60.7498 21.6797L65.5838 21.6973C65.701 21.0176 65.7655 20.4668 65.7772 20.0449C65.8241 18.5566 65.2381 17.7832 64.0194 17.7246ZM71.0555 33L75.4852 7.40625L81.7958 7.42383C83.6591 7.4707 85.2294 7.95703 86.5067 8.88281C87.7958 9.80859 88.7157 11.0918 89.2665 12.7324C89.829 14.373 89.9813 16.207 89.7235 18.2344L89.161 21.9785C88.6454 25.4238 87.3973 28.1191 85.4169 30.0645C83.4481 32.0098 80.9696 32.9883 77.9813 33H71.0555ZM79.7919 11.7129L76.8388 28.7109L78.0868 28.7461C79.8329 28.7461 81.1864 28.2422 82.1473 27.2344C83.1083 26.2148 83.7528 24.5801 84.0809 22.3301L84.6786 18.1816C84.8427 16.834 84.9071 15.8496 84.872 15.2285C84.8134 14.0566 84.5145 13.1895 83.9755 12.627C83.4364 12.0645 82.6395 11.7656 81.5848 11.7305L79.7919 11.7129ZM101.91 18.7617L100.363 18.5859C99.0624 18.5625 98.0136 19.1777 97.2167 20.4316L95.0195 33H90.1503L93.455 13.9805L98.0077 13.9629L97.621 16.0547C98.1952 15.1406 98.7577 14.502 99.3085 14.1387C99.8593 13.7637 100.451 13.5762 101.084 13.5762C101.459 13.5762 101.957 13.6641 102.578 13.8398L101.91 18.7617ZM108.894 33.3516C107.358 33.3398 106.052 32.9648 104.974 32.2266C103.907 31.4883 103.134 30.457 102.653 29.1328C102.185 27.7969 102.044 26.2793 102.231 24.5801L102.39 23.2793C102.776 20.127 103.731 17.7188 105.255 16.0547C106.79 14.3789 108.741 13.5703 111.108 13.6289C112.843 13.6758 114.202 14.2207 115.186 15.2637C116.183 16.2949 116.763 17.7422 116.927 19.6055C117.02 20.7188 116.997 21.8086 116.856 22.875L116.522 25.1602H107.03C106.972 25.6641 106.954 26.1504 106.978 26.6191C107.06 28.3066 107.886 29.168 109.456 29.2031C110.921 29.25 112.339 28.6934 113.71 27.5332L115.345 30.5566C114.7 31.4355 113.798 32.127 112.638 32.6309C111.489 33.1348 110.241 33.375 108.894 33.3516ZM110.634 17.7246C109.239 17.666 108.267 18.5566 107.716 20.3965L107.364 21.6797L112.198 21.6973C112.315 21.0176 112.38 20.4668 112.392 20.0449C112.438 18.5566 111.853 17.7832 110.634 17.7246ZM126.477 33C126.383 32.6016 126.336 32.1094 126.336 31.5234C125.258 32.7539 124.027 33.3691 122.645 33.3691C121.18 33.3457 120.002 32.8066 119.111 31.752C118.232 30.6973 117.828 29.3848 117.898 27.8145C118.004 25.7988 118.789 24.2227 120.254 23.0859C121.719 21.9375 123.688 21.3633 126.16 21.3633H127.584L127.813 19.8164L127.865 19.0254C127.865 18.0059 127.455 17.4961 126.635 17.4961C125.498 17.4609 124.807 18.1875 124.561 19.6758L119.727 19.7109C119.832 17.9062 120.582 16.4355 121.977 15.2988C123.371 14.1504 125.07 13.5879 127.074 13.6113C128.961 13.6582 130.402 14.2559 131.398 15.4043C132.406 16.541 132.816 18.0469 132.629 19.9219L131.082 29.5898L131.012 30.5215C130.965 31.3418 131.047 32.0625 131.258 32.6836L131.24 33H126.477ZM123.98 29.4844C124.836 29.5078 125.633 29.1328 126.371 28.3594L127.232 24.334H126.178C125.24 24.3809 124.484 24.6973 123.91 25.2832C123.336 25.8691 122.99 26.6074 122.873 27.498L122.855 28.166C122.855 28.541 122.949 28.8516 123.137 29.0977C123.336 29.3438 123.617 29.4727 123.98 29.4844ZM141.335 13.9629L141.019 15.7559C142.331 14.291 143.825 13.582 145.501 13.6289C147.317 13.6758 148.501 14.5312 149.052 16.1953C150.493 14.4375 152.099 13.5762 153.868 13.6113C155.204 13.6348 156.224 14.1387 156.927 15.123C157.642 16.0957 157.993 17.4844 157.981 19.2891L157.894 20.9062L155.89 33H151.021L153.042 20.8711L153.13 19.8867C153.224 18.4805 152.755 17.7773 151.724 17.7773C150.892 17.7773 150.13 18.3457 149.439 19.4824L149.333 20.3262L147.136 33H142.284L144.288 20.9062L144.394 19.9219C144.487 18.4922 144.024 17.7773 143.005 17.7773C142.513 17.7773 142.091 17.918 141.739 18.1992C141.399 18.4688 141.083 18.791 140.79 19.166L138.382 33H133.53L136.835 13.9805L141.335 13.9629ZM159.305 33L163.734 7.40625L170.818 7.42383C173.279 7.42383 175.154 8.02148 176.443 9.2168C177.733 10.4004 178.301 12.0879 178.149 14.2793C177.949 16.8809 176.59 18.7676 174.07 19.9395C174.973 20.3145 175.635 20.9707 176.057 21.9082C176.479 22.834 176.643 23.9766 176.549 25.3359C176.373 27.7148 175.524 29.5898 174 30.9609C172.488 32.3203 170.455 33 167.9 33H159.305ZM166.283 21.873L165.088 28.7109L168.041 28.7461C169.154 28.7227 170.027 28.3184 170.66 27.5332C171.305 26.7363 171.639 25.6055 171.662 24.1406C171.662 22.7344 171.07 21.9844 169.887 21.8906L166.283 21.873ZM166.916 18.1113L169.307 18.1465C170.584 18.123 171.551 17.6895 172.207 16.8457C172.863 16.002 173.145 14.9238 173.051 13.6113C172.934 12.4277 172.231 11.8008 170.941 11.7305L168.041 11.7129L166.916 18.1113ZM187.364 33C187.271 32.6016 187.224 32.1094 187.224 31.5234C186.146 32.7539 184.915 33.3691 183.532 33.3691C182.068 33.3457 180.89 32.8066 179.999 31.752C179.12 30.6973 178.716 29.3848 178.786 27.8145C178.892 25.7988 179.677 24.2227 181.142 23.0859C182.607 21.9375 184.575 21.3633 187.048 21.3633H188.472L188.7 19.8164L188.753 19.0254C188.753 18.0059 188.343 17.4961 187.523 17.4961C186.386 17.4609 185.694 18.1875 185.448 19.6758L180.614 19.7109C180.72 17.9062 181.47 16.4355 182.864 15.2988C184.259 14.1504 185.958 13.5879 187.962 13.6113C189.849 13.6582 191.29 14.2559 192.286 15.4043C193.294 16.541 193.704 18.0469 193.517 19.9219L191.97 29.5898L191.9 30.5215C191.853 31.3418 191.935 32.0625 192.146 32.6836L192.128 33H187.364ZM184.868 29.4844C185.724 29.5078 186.521 29.1328 187.259 28.3594L188.12 24.334H187.066C186.128 24.3809 185.372 24.6973 184.798 25.2832C184.224 25.8691 183.878 26.6074 183.761 27.498L183.743 28.166C183.743 28.541 183.837 28.8516 184.025 29.0977C184.224 29.3438 184.505 29.4727 184.868 29.4844ZM203.067 13.6289C204.754 13.6758 205.985 14.3672 206.758 15.7031L207.356 13.9629L211.785 13.9805L208.551 33C208.211 35.4727 207.262 37.3594 205.703 38.6602C204.156 39.9609 202.205 40.5762 199.85 40.5059C198.819 40.4824 197.799 40.2715 196.791 39.873C195.783 39.4746 194.94 38.9238 194.26 38.2207L196.246 34.8105C197.219 35.9121 198.432 36.4863 199.885 36.5332C201.994 36.6152 203.283 35.4551 203.752 33.0527L204.104 31.4707C202.967 32.7363 201.713 33.3691 200.342 33.3691C198.678 33.3457 197.418 32.707 196.563 31.4531C195.719 30.1875 195.309 28.4414 195.332 26.2148C195.332 24.832 195.467 23.3555 195.736 21.7852C196.018 20.2031 196.416 18.8672 196.932 17.7773C198.268 14.9414 200.313 13.5586 203.067 13.6289ZM200.131 26.1621C200.131 28.1543 200.77 29.168 202.047 29.2031C202.902 29.2266 203.705 28.8633 204.455 28.1133L206.09 18.9727C205.645 18.2109 205 17.8066 204.156 17.7598C202.094 17.6543 200.852 19.3184 200.43 22.752C200.231 24.3926 200.131 25.5293 200.131 26.1621Z" fill="white"/>
<path d="M5.92308 7H50.1538L48.2308 12.7692H4L5.92308 7Z" fill="white"/>
<path d="M14.978 16.6154H46.3082L44.946 22.3846H13.6159L14.978 16.6154Z" fill="white"/>
<path d="M24.593 26.2307H42.4615L41.0994 31.9999H23.2308L24.593 26.2307Z" fill="white"/>
</g>
<defs>
<filter id="filter0_d" x="0" y="7" width="215.785" height="41.5113" filterUnits="userSpaceOnUse" color-interpolation-filters="sRGB">
<feFlood flood-opacity="0" result="BackgroundImageFix"/>
<feColorMatrix in="SourceAlpha" type="matrix" values="0 0 0 0 0 0 0 0 0 0 0 0 0 0 0 0 0 0 127 0"/>
<feOffset dy="4"/>
<feGaussianBlur stdDeviation="2"/>
<feColorMatrix type="matrix" values="0 0 0 0 0 0 0 0 0 0 0 0 0 0 0 0 0 0 0.25 0"/>
<feBlend mode="normal" in2="BackgroundImageFix" result="effect1_dropShadow"/>
<feBlend mode="normal" in="SourceGraphic" in2="effect1_dropShadow" result="shape"/>
</filter>
</defs>
</svg>
