<svg width="22" height="22" viewBox="0 0 22 22" fill="none" xmlns="http://www.w3.org/2000/svg">
<path d="M2.07275 6.34082C2.43301 5.49817 2.95202 4.75934 3.55042 4.07545C5.95623 1.35214 8.99706 0.137031 12.6057 0.399593C14.8406 0.564457 16.8128 1.43152 18.5347 2.86035C18.6752 2.97636 18.724 3.04963 18.5653 3.20229C17.6494 4.09987 16.7457 5.00358 15.8419 5.91949C15.6832 6.07825 15.5916 6.1271 15.378 5.96223C12.0929 3.48317 7.19576 4.9181 5.76694 8.77104C5.7303 8.86873 5.69366 8.96032 5.65091 9.05191C4.46023 8.15432 3.26344 7.25062 2.07275 6.34082Z" fill="#E94436"/>
<path d="M5.65703 13.0511C6.12719 14.4128 6.9332 15.5363 8.14831 16.3118C10.3831 17.7345 12.7035 17.7283 15.0482 16.5683C15.1215 16.5315 15.1886 16.495 15.2619 16.4522C16.3671 17.356 17.5028 18.223 18.6446 19.0839C17.4235 20.2807 15.9519 21.0501 14.3032 21.4348C10.4381 22.3324 7.037 21.4103 4.14882 18.6931C3.26954 17.8688 2.56123 16.8979 2.07275 15.7867C3.26344 14.8708 4.46023 13.9609 5.65703 13.0511Z" fill="#35A853"/>
<path d="M18.6439 19.0781C17.5021 18.2172 16.3725 17.3502 15.2613 16.4464C16.2687 15.7443 16.9892 14.8283 17.3189 13.6255C17.4228 13.2468 17.4288 13.2468 17.0442 13.2468C15.365 13.2468 13.6858 13.2407 12.0128 13.253C11.7197 13.253 11.6647 13.1675 11.6709 12.8988C11.683 11.7264 11.683 10.5602 11.6709 9.38782C11.6709 9.168 11.7197 9.09473 11.9518 9.09473C15.0964 9.10084 18.2348 9.10084 21.3795 9.09473C21.5749 9.09473 21.6604 9.13748 21.7031 9.35119C22.0634 11.1891 21.8802 12.9904 21.3429 14.7673C20.8726 16.3366 20.0483 17.6982 18.8944 18.8583C18.8149 18.9438 18.7234 19.0049 18.6439 19.0781Z" fill="#4285F3"/>
<path d="M5.65709 13.0513C4.4603 13.9611 3.26961 14.8709 2.07282 15.7807C1.57211 14.8221 1.26681 13.7963 1.10195 12.7277C0.766117 10.56 1.07142 8.48394 1.97512 6.49336C1.99954 6.4384 2.03618 6.38955 2.07282 6.3407C3.26961 7.2444 4.4603 8.15422 5.65709 9.05792C5.25408 10.389 5.24187 11.7202 5.65709 13.0513Z" fill="#FABB06"/>
</svg>
