<svg width="142" height="183" viewBox="0 0 142 183" fill="none" xmlns="http://www.w3.org/2000/svg">
<path d="M84.6111 183C84.1407 182.998 83.6716 182.951 83.2099 182.861L27.0381 172.154C25.3117 171.836 23.7505 170.924 22.6255 169.574C21.5004 168.224 20.8825 166.522 20.8789 164.763V108.788C20.8816 107.476 21.2252 106.187 21.8759 105.048C22.5265 103.909 23.4619 102.959 24.5899 102.292L55.1394 84.3025C56.7071 83.3778 58.5563 83.0544 60.3439 83.3922L116.516 94.0997C118.241 94.4196 119.8 95.3331 120.925 96.6824C122.049 98.0318 122.668 99.7321 122.675 101.49V157.435C122.672 158.747 122.329 160.036 121.678 161.175C121.027 162.314 120.092 163.263 118.964 163.93L88.3836 181.951C87.2302 182.628 85.9172 182.985 84.5803 182.985L84.6111 183Z" fill="#1D1D1B"/>
<path d="M70.9537 136.945C104.183 127.919 127.403 93.066 133.377 80.3065C143.863 57.904 137.996 13.7162 137.996 13.7162C96.6991 13.7162 70.9229 2.51489 70.9229 2.51489C70.9229 2.51489 45.1467 13.7162 3.84937 13.7162C3.84937 13.7162 -1.98646 57.904 8.46876 80.3065C14.5663 93.066 37.7865 127.919 70.9537 136.945Z" fill="white" stroke="#1D1D1B" stroke-width="3" stroke-miterlimit="10"/>
<path d="M70.9538 130.11C40.6814 120.853 19.5554 88.453 14.4587 77.514C7.00608 61.5916 8.65367 32.4312 9.83931 20.1963C41.8055 19.394 63.7321 12.2814 71.0154 9.56592C78.2832 12.2814 100.272 19.4094 132.192 20.1963C133.3 32.4312 134.963 61.5916 127.572 77.514C122.414 88.345 101.288 120.915 70.9538 130.11Z" fill="#FEC65A" stroke="#1D1D1B" stroke-miterlimit="10"/>
<path d="M34.5986 49.4491L63.5468 74.4591L101.749 36.7822L99.3933 22.4026L63.5468 57.2098L39.7877 38.5102L34.5986 49.4491Z" fill="#1D1D1B"/>
<path d="M85.5205 179.883L23.5283 168.065V105.177L85.5205 116.996V179.883Z" fill="white" stroke="#1D1D1B" stroke-linecap="round" stroke-linejoin="round"/>
<path d="M120.135 159.487L85.5205 179.883V116.996L120.104 96.6455L120.135 159.487Z" fill="white" stroke="#1D1D1B" stroke-linecap="round" stroke-linejoin="round"/>
<path d="M85.4897 117.027L23.5283 105.178L58.1121 84.8271L120.104 96.6455L85.4897 117.027Z" fill="white" stroke="#1D1D1B" stroke-linecap="round" stroke-linejoin="round"/>
<path d="M43.499 93.4209L104.49 105.841" stroke="#1D1D1B" stroke-linecap="round" stroke-linejoin="round"/>
<path d="M34.168 141.605V133.088L37.8943 133.536V142.469C37.8943 145.555 38.7719 146.696 40.4965 146.912C42.2211 147.128 43.145 146.141 43.145 143.101V134.168L46.7482 134.6V143.117C46.7482 148.548 44.654 150.739 40.4965 150.245C36.3391 149.751 34.168 146.974 34.168 141.605Z" fill="#1D1D1B"/>
<path d="M50.2588 135.017L55.725 135.665C59.1588 136.081 61.992 137.67 61.992 141.636C61.992 145.601 59.1126 146.804 55.8328 146.418L54.0159 146.202V151.602L50.2588 151.155V135.017ZM55.6481 143.348C57.465 143.564 58.3581 142.777 58.3581 141.204C58.3581 139.63 57.3572 138.905 55.5403 138.689L54.0005 138.504V143.132L55.6481 143.348Z" fill="#1D1D1B"/>
<path d="M63.4248 150.646L65.5497 148.239C66.5683 149.318 67.8981 150.052 69.3531 150.337C70.7389 150.507 71.3856 150.044 71.3856 149.18C71.3856 148.316 70.5233 147.838 69.1836 147.097L67.1973 146.002C66.2765 145.58 65.4916 144.908 64.9311 144.063C64.3707 143.218 64.0569 142.233 64.0253 141.219C64.0253 138.519 66.3812 136.59 69.6918 137.038C71.659 137.293 73.4658 138.258 74.7731 139.753L72.91 141.944C72.0358 141.098 70.9126 140.557 69.7072 140.401C68.5524 140.262 67.844 140.648 67.844 141.512C67.844 142.376 68.8295 142.87 70.2154 143.595L72.1708 144.629C73.0987 145.031 73.8865 145.701 74.4347 146.552C74.9828 147.403 75.2667 148.399 75.2504 149.412C75.2504 152.096 73.0639 154.194 69.2914 153.732C67.0371 153.419 64.9623 152.327 63.4248 150.646Z" fill="#1D1D1B"/>
</svg>
