<svg width="259" height="184" viewBox="0 0 259 184" fill="none" xmlns="http://www.w3.org/2000/svg">
<g clip-path="url(#clip0)">
<path d="M162.024 184C161.015 183.999 160.008 183.914 159.014 183.744L14.8303 159.079C10.6881 158.363 6.9327 156.201 4.22897 152.978C1.52523 149.754 0.0476545 145.677 0.0578662 141.467V56.953C0.0404165 53.6575 0.940423 50.4222 2.65687 47.6105C4.37331 44.7988 6.83826 42.5219 9.77504 41.0352L86.0175 1.96969C89.4122 0.2347 93.2726 -0.365957 97.0329 0.255753L243.971 24.3097C248.178 24.9681 252.007 27.123 254.756 30.3794C257.506 33.6359 258.991 37.7757 258.94 42.0399V126.534C258.961 129.855 258.05 133.116 256.312 135.944C254.573 138.772 252.076 141.055 249.105 142.531L170.01 182.128C167.536 183.395 164.802 184.069 162.024 184.098V184Z" fill="#1D1D1B"/>
<path d="M163.913 177.893L5.56641 150.805V48.4034L163.913 75.4912V177.893Z" fill="white" stroke="#1D1D1B" stroke-linecap="round" stroke-linejoin="round"/>
<path d="M253.413 133.075L163.913 177.893V75.373L253.413 30.555V133.075Z" fill="#FEC65A" stroke="#1D1D1B" stroke-linecap="round" stroke-linejoin="round"/>
<path d="M253.413 30.555L163.913 75.4912L5.56641 48.4034L92.1358 4.07795L253.413 30.555Z" fill="white" stroke="#1D1D1B" stroke-linecap="round" stroke-linejoin="round"/>
<path fill-rule="evenodd" clip-rule="evenodd" d="M48.2312 114.163C48.2312 114.163 45.5167 106.401 48.4673 102.953C51.4178 99.5058 59.0499 96.3144 62.3939 94.8368C65.7379 93.3593 76.1632 87.6265 79.0154 81.7362C81.8676 75.8458 85.1132 71.7285 89.7751 72.8514C94.437 73.9743 101.007 77.54 103.702 87.7447C106.397 97.9495 99.5316 109.75 99.5316 109.75C99.5316 109.75 104.941 109.75 105.649 118.576C106.357 127.401 100.023 135.794 100.023 135.794C100.023 135.794 105.157 138.276 102.463 146.924C99.7677 155.573 94.1616 158.606 88.5359 157.247C82.9101 155.888 71.6783 151.672 69.4556 145.427C69.4556 145.427 70.1834 142.176 74.8453 145.427C79.5072 148.678 88.2802 152.381 91.9585 145.663C95.6369 138.946 92.1749 138.867 89.4997 138.709C86.8245 138.552 77.5204 137.251 77.0484 134.927C76.5763 132.602 77.2844 132.051 79.4875 132.09C81.6906 132.129 91.4668 133.804 93.6502 129.411C95.8336 125.018 97.5842 118.379 94.614 117.591C91.6438 116.803 90.2275 120.191 85.605 120.29C80.9824 120.388 76.5369 120.29 75.0616 117.236C73.5864 114.182 78.4843 114.655 80.4513 114.143C82.4184 113.631 91.1914 109.888 93.6502 103.406C96.109 96.925 92.6666 89.4587 91.4668 89.1632C90.2669 88.8677 82.9101 95.4081 73.6257 100.254C64.3413 105.101 60.6629 102.993 55.9224 106.164C50.513 109.888 52.3227 117.531 48.1919 113.828" fill="#DF0A15"/>
<path d="M53.3457 23.8964L212.361 51.1615" stroke="#1D1D1B" stroke-linecap="round" stroke-linejoin="round"/>
<path d="M39.616 178H46.266V176.628H43.69C43.186 176.628 42.542 176.67 42.01 176.726C44.194 174.64 45.776 172.582 45.776 170.594C45.776 168.732 44.558 167.5 42.668 167.5C41.324 167.5 40.414 168.088 39.532 169.04L40.442 169.936C40.988 169.306 41.66 168.788 42.472 168.788C43.62 168.788 44.222 169.558 44.222 170.678C44.222 172.372 42.654 174.374 39.616 177.062V178ZM48.6784 173.982L50.7084 170.874C51.0024 170.342 51.2824 169.81 51.5344 169.292H51.5904C51.5624 169.852 51.5064 170.72 51.5064 171.28V173.982H48.6784ZM54.3344 173.982H53.0184V167.696H51.1564L47.0544 174.15V175.228H51.5064V178H53.0184V175.228H54.3344V173.982Z" fill="black"/>
<path d="M222.204 168H228.084V166.67H226.068V157.696H224.85C224.262 158.06 223.576 158.298 222.61 158.48V159.502H224.458V166.67H222.204V168ZM232.778 168.182C234.766 168.182 236.11 167.006 236.11 165.48C236.11 164.08 235.298 163.282 234.374 162.75V162.68C235.018 162.204 235.732 161.308 235.732 160.258C235.732 158.648 234.612 157.528 232.82 157.528C231.126 157.528 229.88 158.578 229.88 160.188C229.88 161.28 230.496 162.05 231.266 162.596V162.666C230.314 163.17 229.418 164.08 229.418 165.438C229.418 167.034 230.846 168.182 232.778 168.182ZM233.45 162.274C232.302 161.826 231.322 161.308 231.322 160.188C231.322 159.264 231.952 158.69 232.792 158.69C233.8 158.69 234.374 159.404 234.374 160.356C234.374 161.042 234.066 161.7 233.45 162.274ZM232.806 167.02C231.7 167.02 230.846 166.306 230.846 165.284C230.846 164.388 231.336 163.618 232.05 163.128C233.45 163.702 234.584 164.178 234.584 165.438C234.584 166.404 233.856 167.02 232.806 167.02Z" fill="black"/>
<path d="M237.204 97H243.084V95.67H241.068V86.696H239.85C239.262 87.06 238.576 87.298 237.61 87.48V88.502H239.458V95.67H237.204V97ZM248.058 95.95C246.952 95.95 246.21 94.984 246.042 92.94C246.658 92.058 247.358 91.736 247.96 91.736C249.066 91.736 249.654 92.478 249.654 93.808C249.654 95.138 248.954 95.95 248.058 95.95ZM250.984 87.606C250.396 86.99 249.556 86.5 248.408 86.5C246.378 86.5 244.516 88.082 244.516 92.044C244.516 95.544 246.112 97.182 248.072 97.182C249.752 97.182 251.152 95.852 251.152 93.808C251.152 91.624 249.99 90.56 248.254 90.56C247.512 90.56 246.616 91.008 246.014 91.75C246.084 88.81 247.176 87.816 248.492 87.816C249.094 87.816 249.724 88.138 250.102 88.586L250.984 87.606Z" fill="black"/>
</g>
<defs>
<clipPath id="clip0">
<rect width="259" height="184" fill="white"/>
</clipPath>
</defs>
</svg>
