<svg width="14" height="16" viewBox="0 0 14 16" fill="none" xmlns="http://www.w3.org/2000/svg">
<path d="M14 10.7601V2.47283C14 1.6534 13.3284 0.989136 12.5 0.989136H1.5C0.671562 0.989136 0 1.6534 0 2.47283V13.3529C0 14.1723 0.671562 14.8366 1.5 14.8366H9.87869C10.2765 14.8366 10.658 14.6803 10.9393 14.402L13.5607 11.8092C13.842 11.531 14 11.1536 14 10.7601ZM10 13.2329V10.8801H12.3787L10 13.2329ZM12.5 2.47283V9.39637H9.25C8.83578 9.39637 8.5 9.72851 8.5 10.1382V13.3529H1.5V2.47283H12.5Z" fill="#999999"/>
</svg>
