<svg width="152" height="180" viewBox="0 0 152 180" fill="none" xmlns="http://www.w3.org/2000/svg">
<g clip-path="url(#clip0)">
<path d="M9.61146 179.984C7.0582 179.984 4.60956 178.964 2.80413 177.148C0.998703 175.333 -0.015625 172.87 -0.015625 170.303V24.0437C-0.015625 21.476 0.998703 19.0135 2.80413 17.1979C4.60956 15.3823 7.0582 14.3623 9.61146 14.3623H27.976C28.0574 14.3623 28.1379 14.3462 28.2131 14.3149C28.2882 14.2836 28.3565 14.2377 28.4141 14.1798C28.4716 14.122 28.5173 14.0533 28.5485 13.9777C28.5796 13.9021 28.5956 13.8211 28.5956 13.7392V12.5091C28.5998 9.19278 29.9117 6.01349 32.2435 3.6685C34.5754 1.3235 37.7369 0.00422731 41.0346 0H82.3389C85.6367 0.00422731 88.7981 1.3235 91.1299 3.6685C93.4618 6.01349 94.7736 9.19278 94.7778 12.5091V13.7073C94.7778 13.8725 94.8431 14.031 94.9593 14.1479C95.0755 14.2647 95.2331 14.3303 95.3974 14.3303H113.762C116.315 14.3303 118.764 15.3503 120.569 17.166C122.375 18.9816 123.389 21.4441 123.389 24.0117V117.407C123.388 117.536 123.428 117.663 123.502 117.768C123.576 117.874 123.681 117.955 123.802 117.998L146.631 125.538C147.743 125.903 148.724 126.589 149.451 127.511C150.178 128.433 150.618 129.55 150.718 130.722C150.818 131.894 150.573 133.07 150.013 134.103C149.452 135.136 148.602 135.98 147.568 136.53L145.979 137.328L149.792 140.524C150.982 141.524 151.738 142.951 151.898 144.502C152.058 146.054 151.61 147.607 150.65 148.831L147.933 152.218C147.384 152.907 146.688 153.464 145.896 153.845C145.104 154.227 144.236 154.424 143.358 154.423C141.973 154.42 140.631 153.935 139.561 153.049L136.273 150.269L135.431 153.256C135.076 154.48 134.336 155.554 133.322 156.317C132.308 157.081 131.074 157.492 129.807 157.49C128.719 157.496 127.65 157.201 126.717 156.637C125.784 156.074 125.023 155.264 124.517 154.295C124.486 154.194 124.422 154.106 124.335 154.046C124.249 153.985 124.146 153.955 124.04 153.959C123.954 153.947 123.866 153.955 123.783 153.981C123.7 154.007 123.624 154.052 123.56 154.112C123.496 154.171 123.446 154.245 123.414 154.326C123.381 154.407 123.368 154.495 123.373 154.582V170.271C123.373 172.838 122.359 175.301 120.553 177.116C118.748 178.932 116.299 179.952 113.746 179.952H9.61146V179.984Z" fill="#000100"/>
<path d="M118.893 18.8994H4.51172V175.463H118.893V18.8994Z" fill="white" stroke="#1D1D1B" stroke-miterlimit="10"/>
<path d="M41.0496 4.52124H82.3539C84.4606 4.52124 86.481 5.36282 87.9706 6.86085C89.4602 8.35888 90.2971 10.3906 90.2971 12.5092V33.2778H33.1064V12.5092C33.1064 10.3906 33.9433 8.35888 35.4329 6.86085C36.9226 5.36282 38.9429 4.52124 41.0496 4.52124Z" fill="white" stroke="#1D1D1B" stroke-miterlimit="10"/>
<path d="M145.487 132.536L138.005 136.466L146.949 144.054C147.246 144.301 147.435 144.654 147.476 145.039C147.518 145.424 147.408 145.81 147.171 146.115L144.486 149.502C144.367 149.647 144.22 149.766 144.055 149.853C143.889 149.94 143.708 149.993 143.522 150.01C143.336 150.026 143.148 150.005 142.97 149.948C142.792 149.891 142.627 149.799 142.485 149.678L133.986 142.473L131.158 152.058C131.072 152.326 130.909 152.562 130.689 152.737C130.469 152.911 130.203 153.016 129.924 153.038C129.645 153.06 129.366 152.999 129.122 152.861C128.877 152.724 128.679 152.517 128.552 152.266L112.666 121.768C112.543 121.526 112.492 121.254 112.518 120.983C112.545 120.713 112.648 120.456 112.815 120.242C112.982 120.029 113.206 119.868 113.462 119.779C113.717 119.69 113.992 119.676 114.255 119.739L145.09 129.98C145.358 130.069 145.594 130.234 145.77 130.455C145.946 130.676 146.055 130.944 146.084 131.226C146.112 131.508 146.059 131.792 145.931 132.044C145.802 132.296 145.604 132.506 145.36 132.648L145.487 132.536Z" fill="#FEC65A" stroke="#000100" stroke-miterlimit="10"/>
<path d="M33.1064 62.0342H104.595" stroke="#000100" stroke-linecap="round" stroke-linejoin="round"/>
<path d="M33.1064 90.7908H104.595" stroke="#000100" stroke-linecap="round" stroke-linejoin="round"/>
<path d="M33.1064 119.547H104.595" stroke="#000100" stroke-linecap="round" stroke-linejoin="round"/>
<path d="M33.1064 148.304H104.595" stroke="#000100" stroke-linecap="round" stroke-linejoin="round"/>
<path d="M18.8096 52.5446L24.0203 57.0658L30.8832 50.2601L30.4701 47.656L24.0203 53.9505L19.7469 50.5796L18.8096 52.5446Z" fill="#1D1D1B"/>
<path d="M18.8096 81.3012L24.0203 85.8224L30.8832 79.0167L30.4701 76.4126L24.0203 82.7071L19.7469 79.3362L18.8096 81.3012Z" fill="#1D1D1B"/>
<path d="M18.8096 110.058L24.0203 114.579L30.8832 107.773L30.4701 105.169L24.0203 111.464L19.7469 108.093L18.8096 110.058Z" fill="#1D1D1B"/>
<path d="M18.8096 138.814L24.0203 143.335L30.8832 136.53L30.4701 133.926L24.0203 140.22L19.7469 136.849L18.8096 138.814Z" fill="#1D1D1B"/>
</g>
<defs>
<clipPath id="clip0">
<rect width="152" height="180" fill="white"/>
</clipPath>
</defs>
</svg>
