<svg width="14" height="14" viewBox="0 0 14 14" fill="none" xmlns="http://www.w3.org/2000/svg">
<g clip-path="url(#clip0)">
<path d="M6.53789 0.172244L0.850391 2.30506C0.339062 2.49646 0 2.98865 0 3.53553V9.6906C0 10.1883 0.281641 10.6422 0.724609 10.8637L6.41211 13.7074C6.78125 13.8933 7.21602 13.8933 7.58516 13.7074L13.2727 10.8637C13.7184 10.6422 13.9973 10.1855 13.9973 9.6906V3.53553C13.9973 2.98865 13.6582 2.4992 13.1469 2.30779L7.45937 0.174979C7.16406 0.0601349 6.83594 0.0601349 6.53789 0.172244ZM7 1.87029L12.25 3.83904V3.86912L7 6.00193L1.75 3.86912V3.83904L7 1.87029ZM7.875 11.6047V7.53318L12.25 5.75584V9.41717L7.875 11.6047Z" fill="#999999"/>
</g>
<defs>
<clipPath id="clip0">
<rect width="14" height="14" fill="white"/>
</clipPath>
</defs>
</svg>
