<svg width="187" height="173" viewBox="0 0 187 173" fill="none" xmlns="http://www.w3.org/2000/svg">
<g clip-path="url(#clip0)">
<path fill-rule="evenodd" clip-rule="evenodd" d="M143.3 77.3412C135.668 77.3412 128.208 75.0732 121.862 70.824C115.517 66.5748 110.571 60.5353 107.65 53.4692C104.73 46.403 103.965 38.6277 105.454 31.1263C106.943 23.625 110.618 16.7345 116.015 11.3263C121.411 5.91816 128.287 2.23514 135.772 0.743031C143.257 -0.749082 151.016 0.0167249 158.067 2.94361C165.118 5.87049 171.144 10.827 175.384 17.1863C179.624 23.5457 181.888 31.0223 181.888 38.6706C181.876 48.9232 177.807 58.7526 170.573 66.0023C163.339 73.252 153.531 77.3299 143.3 77.3412Z" fill="#1D1D1B"/>
<path d="M144.621 173C141.256 173.014 137.966 172.011 135.179 170.122C132.392 168.233 130.238 165.545 128.998 162.411C128.759 161.77 128.334 161.215 127.777 160.819C127.22 160.423 126.557 160.204 125.874 160.19H61.0694C60.3865 160.204 59.7236 160.423 59.1665 160.819C58.6094 161.215 58.1838 161.77 57.9449 162.411C56.6999 165.544 54.5456 168.231 51.7605 170.124C48.9754 172.016 45.6876 173.028 42.3225 173.028C38.9573 173.028 35.6696 172.016 32.8844 170.124C30.0993 168.231 27.945 165.544 26.7001 162.411C26.4612 161.77 26.0356 161.215 25.4785 160.819C24.9214 160.423 24.2584 160.204 23.5756 160.19H11.3618C8.34843 160.19 5.45852 158.991 3.32778 156.856C1.19704 154.72 1.16484e-05 151.824 1.16484e-05 148.804V119.456C-0.00251468 117.688 0.40593 115.943 1.19299 114.361L23.9165 68.7446C24.861 66.8529 26.3128 65.2622 28.1089 64.1511C29.905 63.0399 31.9745 62.4521 34.0852 62.4537H47.7761C48.2155 62.4593 48.6515 62.3773 49.0588 62.2123C49.4662 62.0472 49.8367 61.8026 50.1487 61.4926C50.4607 61.1826 50.7079 60.8134 50.8761 60.4066C51.0442 59.9998 51.1298 59.5635 51.1278 59.1232V48.2208C51.1278 45.201 52.3249 42.3049 54.4556 40.1695C56.5863 38.0342 59.4762 36.8346 62.4896 36.8346H175.638C178.652 36.8346 181.542 38.0342 183.672 40.1695C185.803 42.3049 187 45.201 187 48.2208V148.804C187 151.824 185.803 154.72 183.672 156.856C181.542 158.991 178.652 160.19 175.638 160.19H163.325C162.642 160.204 161.979 160.423 161.422 160.819C160.865 161.215 160.439 161.77 160.201 162.411C158.964 165.539 156.816 168.221 154.038 170.11C151.259 171.998 147.978 173.005 144.621 173Z" fill="#1D1D1B"/>
<path d="M182.981 41.1471H55.1616V66.7662H29.5976L4.01953 118.004V156.433H182.981V41.1471Z" fill="white" stroke="#1D1D1B" stroke-miterlimit="10"/>
<path d="M16.8154 118.004H55.1613V66.7662" stroke="#1D1D1B" stroke-miterlimit="10"/>
<path d="M144.621 169.243C151.68 169.243 157.403 163.508 157.403 156.433C157.403 149.358 151.68 143.623 144.621 143.623C137.562 143.623 131.839 149.358 131.839 156.433C131.839 163.508 137.562 169.243 144.621 169.243Z" fill="#FEC65A" stroke="#1D1D1B" stroke-miterlimit="10"/>
<path d="M42.365 169.243C49.4242 169.243 55.1469 163.508 55.1469 156.433C55.1469 149.358 49.4242 143.623 42.365 143.623C35.3057 143.623 29.583 149.358 29.583 156.433C29.583 163.508 35.3057 169.243 42.365 169.243Z" fill="#FEC65A" stroke="#1D1D1B" stroke-miterlimit="10"/>
<path fill-rule="evenodd" clip-rule="evenodd" d="M68.625 97.9361C68.625 97.9361 66.239 91.0758 68.8238 87.9731C71.4086 84.8703 78.1688 82.1092 81.1087 80.8567C84.0485 79.6042 93.1947 74.4946 95.7795 69.2854C98.3643 64.0762 101.162 60.4326 105.281 61.4431C109.399 62.4536 115.222 65.5849 117.58 74.5942C119.937 83.6036 113.916 94.079 113.916 94.079C113.916 94.079 118.688 94.079 119.298 101.836C119.909 109.593 114.328 117.051 114.328 117.051C114.328 117.051 118.858 119.243 116.486 126.886C114.115 134.529 109.158 137.204 104.187 135.995C99.2164 134.785 89.3033 131.07 87.3434 125.619C87.3434 125.619 87.9968 122.772 92.1012 125.704C96.2056 128.636 103.96 131.839 107.212 125.918C110.465 119.997 107.411 119.912 105.039 119.783C102.668 119.655 94.4729 118.502 94.0469 116.439C93.6208 114.375 94.2599 113.905 96.2056 113.934C98.1513 113.962 106.772 115.442 108.704 111.571C110.635 107.7 112.14 101.822 109.556 101.195C106.971 100.569 105.678 103.487 101.602 103.587C97.5264 103.686 93.6066 103.586 92.3 100.882C90.9934 98.178 95.3251 98.605 97.0577 98.1496C98.7904 97.6941 106.545 94.3921 108.704 88.6563C110.862 82.9204 107.837 76.3306 106.772 76.0602C105.707 75.7898 99.2165 81.5826 91.0218 85.8524C82.8272 90.1223 79.5749 88.272 75.3994 91.147C70.6275 94.4348 72.2181 101.181 68.5682 97.9218" fill="#DF0A15"/>
<path d="M143.2 73.7545C162.284 73.7545 177.754 58.2508 177.754 39.126C177.754 20.0012 162.284 4.49756 143.2 4.49756C124.117 4.49756 108.646 20.0012 108.646 39.126C108.646 58.2508 124.117 73.7545 143.2 73.7545Z" fill="white" stroke="#1D1D1B" stroke-miterlimit="10"/>
<path d="M143.2 18.3461V40.8482" stroke="#1D1D1B" stroke-width="4" stroke-linecap="round" stroke-linejoin="round"/>
<path d="M158.752 32.7782L143.2 41.4318" stroke="#1D1D1B" stroke-width="4" stroke-linecap="round" stroke-linejoin="round"/>
</g>
<defs>
<clipPath id="clip0">
<rect width="187" height="173" fill="white"/>
</clipPath>
</defs>
</svg>
