<?xml version="1.0" encoding="utf-8"?>
<!-- Generator: Adobe Illustrator 22.0.0, SVG Export Plug-In . SVG Version: 6.00 Build 0)  -->
<svg version="1.1" id="Layer_1" xmlns="http://www.w3.org/2000/svg" xmlns:xlink="http://www.w3.org/1999/xlink" x="0px" y="0px"
	 viewBox="0 0 57.9 61.8" style="enable-background:new 0 0 57.9 61.8;" xml:space="preserve">
<style type="text/css">
	.st0{fill:#FFFFFF;}
	.st1{fill:none;stroke:#000000;stroke-width:2.8854;stroke-miterlimit:10;}
	.st2{fill:none;stroke:#000000;stroke-width:3.0938;stroke-miterlimit:10;}
	.st3{fill:none;stroke:#000000;stroke-width:2.9439;stroke-miterlimit:10;}
	.st4{stroke:#000000;stroke-width:0.9055;stroke-miterlimit:10;}
	.st5{stroke:#000000;stroke-width:0.8832;stroke-miterlimit:10;}
	.st6{fill:none;stroke:#000000;stroke-width:2.7176;stroke-linecap:round;stroke-linejoin:round;stroke-miterlimit:10;}
	.st7{stroke:#000000;stroke-width:0.985;stroke-linecap:round;stroke-linejoin:round;stroke-miterlimit:10;}
	.st8{fill:none;stroke:#000000;stroke-width:7;stroke-miterlimit:10;}
	.st9{fill:none;stroke:#000000;stroke-width:5;stroke-miterlimit:10;}
	.st10{fill:none;stroke:#000000;stroke-width:2;stroke-miterlimit:10;}
</style>
<g>
	<path class="st1" d="M52.3,1.4H5.8c-2.1,0-3.8,1.7-3.8,3.8v51.5c0,2.1,1.7,3.8,3.8,3.8h46.5c2.1,0,3.8-1.7,3.8-3.8V5.2
		C56.1,3.1,54.4,1.4,52.3,1.4z"/>
	<path class="st2" d="M51.2,2.9H7c-1.8,0-3.2,1.4-3.2,3.2v10.1c0,1.8,1.4,3.2,3.2,3.2h44.2c1.8,0,3.2-1.4,3.2-3.2V6.1
		C54.4,4.4,52.9,2.9,51.2,2.9z"/>
	<path class="st2" d="M13.3,32.4H6.8c-1.5,0-2.8-1.2-2.8-2.8v-6.5c0-1.5,1.2-2.8,2.8-2.8h6.5c1.5,0,2.8,1.2,2.8,2.8v6.5
		C16.1,31.2,14.9,32.4,13.3,32.4z"/>
	<path class="st2" d="M26.3,32.4h-6.5c-1.5,0-2.8-1.2-2.8-2.8v-6.5c0-1.5,1.2-2.8,2.8-2.8h6.5c1.5,0,2.8,1.2,2.8,2.8v6.5
		C29.1,31.2,27.9,32.4,26.3,32.4z"/>
	<path class="st2" d="M39.3,32.4h-6.5c-1.5,0-2.8-1.2-2.8-2.8v-6.5c0-1.5,1.2-2.8,2.8-2.8h6.5c1.5,0,2.8,1.2,2.8,2.8v6.5
		C42.1,31.2,40.9,32.4,39.3,32.4z"/>
	<path class="st2" d="M52.3,32.4h-6.5c-1.5,0-2.8-1.2-2.8-2.8v-6.5c0-1.5,1.2-2.8,2.8-2.8h6.5c1.5,0,2.8,1.2,2.8,2.8v6.5
		C55.1,31.2,53.9,32.4,52.3,32.4z"/>
	<path class="st2" d="M13.3,45.4H6.8c-1.5,0-2.8-1.2-2.8-2.8v-6.5c0-1.5,1.2-2.8,2.8-2.8h6.5c1.5,0,2.8,1.2,2.8,2.8v6.5
		C16.1,44.2,14.9,45.4,13.3,45.4z"/>
	<path class="st2" d="M26.3,45.4h-6.5c-1.5,0-2.8-1.2-2.8-2.8v-6.5c0-1.5,1.2-2.8,2.8-2.8h6.5c1.5,0,2.8,1.2,2.8,2.8v6.5
		C29.1,44.2,27.9,45.4,26.3,45.4z"/>
	<path class="st2" d="M39.3,45.4h-6.5c-1.5,0-2.8-1.2-2.8-2.8v-6.5c0-1.5,1.2-2.8,2.8-2.8h6.5c1.5,0,2.8,1.2,2.8,2.8v6.5
		C42.1,44.2,40.9,45.4,39.3,45.4z"/>
	<path class="st3" d="M51.6,59.4h-5c-1.9,0-3.5-1.6-3.5-3.5v-19c0-1.9,1.6-3.5,3.5-3.5h5c1.9,0,3.5,1.6,3.5,3.5v19
		C55.1,57.8,53.5,59.4,51.6,59.4z"/>
	<path class="st2" d="M13.3,59.4H6.8c-1.5,0-2.8-1.2-2.8-2.8v-6.5c0-1.5,1.2-2.8,2.8-2.8h6.5c1.5,0,2.8,1.2,2.8,2.8v6.5
		C16.1,58.2,14.9,59.4,13.3,59.4z"/>
	<path class="st2" d="M26.3,59.4h-6.5c-1.5,0-2.8-1.2-2.8-2.8v-6.5c0-1.5,1.2-2.8,2.8-2.8h6.5c1.5,0,2.8,1.2,2.8,2.8v6.5
		C29.1,58.2,27.9,59.4,26.3,59.4z"/>
	<path class="st2" d="M39.3,59.4h-6.5c-1.5,0-2.8-1.2-2.8-2.8v-6.5c0-1.5,1.2-2.8,2.8-2.8h6.5c1.5,0,2.8,1.2,2.8,2.8v6.5
		C42.1,58.2,40.9,59.4,39.3,59.4z"/>
	<rect x="3.1" y="18.4" width="2" height="30"/>
	<rect x="14.6" y="31.9" width="30" height="2"/>
	<rect x="14.6" y="44.9" width="28" height="3"/>
	<rect x="12.6" y="58.9" width="31" height="3"/>
</g>
</svg>
