<svg width="200" height="189" viewBox="0 0 200 189" fill="none" xmlns="http://www.w3.org/2000/svg">
<path d="M132.609 100.63C133.364 100.629 134.114 100.523 134.84 100.315L157.346 93.9143L175.821 99.1722C177.022 99.5164 178.287 99.5779 179.516 99.3521C180.745 99.1262 181.904 98.619 182.904 97.8702C183.905 97.1215 184.717 96.1515 185.28 95.0364C185.842 93.9212 186.138 92.6911 186.145 91.4425V47.4073C186.139 45.647 185.561 43.9362 184.499 42.532C183.436 41.1278 181.947 40.1061 180.253 39.6204L159.577 33.7195C158.124 33.3061 156.583 33.3061 155.13 33.7195L132.609 40.149L114.206 34.8768C113.001 34.5344 111.732 34.476 110.5 34.7062C109.268 34.9364 108.106 35.4489 107.105 36.2035C106.105 36.9581 105.293 37.9342 104.734 39.0551C104.175 40.176 103.883 41.4112 103.882 42.6637V86.6418C103.888 88.402 104.466 90.1128 105.528 91.517C106.591 92.9212 108.08 93.9429 109.774 94.4286L130.393 100.33C131.114 100.531 131.86 100.632 132.609 100.63Z" fill="#1D1D1B"/>
<path d="M151.069 184.985C147.673 184.993 144.354 183.976 141.547 182.066C138.74 180.157 136.576 177.444 135.34 174.283C135.102 173.639 134.677 173.081 134.119 172.681C133.56 172.281 132.895 172.058 132.208 172.04L67.0191 171.726C66.3309 171.736 65.6615 171.952 65.098 172.347C64.5344 172.742 64.1028 173.297 63.8591 173.941C62.5914 177.08 60.4102 179.768 57.5974 181.655C54.7847 183.543 51.4698 184.543 48.0817 184.528C44.6935 184.513 41.388 183.482 38.5925 181.569C35.797 179.656 33.6403 176.949 32.4013 173.798C32.164 173.154 31.7386 172.595 31.1803 172.196C30.6221 171.796 29.9565 171.572 29.2698 171.555H14.8993C13.6619 171.549 12.4376 171.3 11.2965 170.821C10.1554 170.343 9.11977 169.645 8.24873 168.766C7.37772 167.888 6.68835 166.847 6.22002 165.702C5.75166 164.558 5.51353 163.332 5.51918 162.096L5.70505 130.02C5.71074 128.555 6.05838 127.112 6.72029 125.805L30.6282 78.5833C31.4171 77.022 32.6255 75.7111 34.1181 74.7975C35.6108 73.8839 37.3286 73.4039 39.0789 73.4111L56.1233 73.4968C56.2973 73.4987 56.4699 73.4661 56.6311 73.4009C56.7924 73.3357 56.9391 73.2391 57.0628 73.1169C57.1864 72.9946 57.2846 72.8491 57.3516 72.6887C57.4186 72.5283 57.4531 72.3562 57.4531 72.1823V57.2086C57.4662 55.9685 57.7243 54.7431 58.2126 53.6029C58.701 52.4627 59.41 51.4301 60.2988 50.5645C61.1877 49.6989 62.239 49.0173 63.3923 48.5588C64.5455 48.1003 65.7781 47.874 67.0191 47.8929L184.957 48.4502C187.446 48.4766 189.824 49.4861 191.571 51.2583C193.318 53.0305 194.292 55.4214 194.28 57.9087L193.823 162.882C193.817 164.118 193.568 165.342 193.089 166.482C192.61 167.622 191.911 168.657 191.032 169.527C190.153 170.398 189.111 171.086 187.966 171.554C186.821 172.022 185.594 172.26 184.357 172.255H169.986C169.298 172.265 168.629 172.481 168.065 172.876C167.501 173.271 167.07 173.826 166.826 174.469C165.558 177.599 163.378 180.276 160.568 182.151C157.757 184.026 154.448 185.014 151.069 184.985Z" fill="#1D1D1B"/>
<path d="M190.291 52.7366L61.6001 52.1365L61.4857 77.8547L35.7475 77.7261L9.76624 129.048L9.58034 167.625L189.748 168.468L190.291 52.7366Z" fill="white" stroke="#1D1D1B" stroke-miterlimit="10"/>
<path d="M22.635 129.105L61.2423 129.291L61.4854 77.8547" stroke="#1D1D1B" stroke-miterlimit="10"/>
<path d="M151.927 181.385C144.819 181.385 139.058 175.627 139.058 168.526C139.058 161.424 144.819 155.667 151.927 155.667C159.034 155.667 164.796 161.424 164.796 168.526C164.796 175.627 159.034 181.385 151.927 181.385Z" fill="white" stroke="#1D1D1B" stroke-miterlimit="10"/>
<path d="M48.9737 181.385C41.8663 181.385 36.1046 175.627 36.1046 168.526C36.1046 161.424 41.8663 155.667 48.9737 155.667C56.0811 155.667 61.8428 161.424 61.8428 168.526C61.8428 175.627 56.0811 181.385 48.9737 181.385Z" fill="white" stroke="#1D1D1B" stroke-miterlimit="10"/>
<path fill-rule="evenodd" clip-rule="evenodd" d="M74.898 109.217C74.898 109.217 72.5243 102.315 75.1554 99.215C77.7864 96.1145 84.5927 93.3713 87.5669 92.0711C90.5411 90.7709 99.7496 85.7272 102.395 80.5836C105.04 75.44 107.857 71.7251 112.004 72.7538C116.151 73.7826 122.013 76.9545 124.33 86.013C126.646 95.0715 120.526 105.516 120.526 105.516C120.526 105.516 125.331 105.616 125.931 113.374C126.532 121.133 120.855 128.591 120.855 128.591C120.855 128.591 125.416 130.82 122.985 138.478C120.555 146.136 115.564 148.808 110.56 147.565C105.555 146.322 95.6172 142.579 93.644 137.164C93.644 137.164 94.316 134.306 98.4341 137.264C102.552 140.221 110.345 143.479 113.648 137.549C116.951 131.62 113.877 131.448 111.489 131.32C109.101 131.191 100.851 129.977 100.436 127.919C100.021 125.862 100.65 125.376 102.624 125.419C104.597 125.462 113.262 126.976 115.221 123.104C117.18 119.232 118.724 113.331 116.122 112.688C113.52 112.046 112.218 114.975 108.1 115.046C103.982 115.117 100.05 115.046 98.7487 112.288C97.4475 109.531 101.794 110.017 103.553 109.574C105.312 109.131 113.119 105.845 115.321 100.101C117.523 94.3571 114.506 87.7132 113.434 87.4561C112.361 87.1989 105.812 92.9569 97.5476 97.1575C89.2828 101.358 86.0083 99.5293 81.8187 102.387C76.9999 105.659 78.5728 112.388 74.9123 109.159" fill="#DF0A15"/>
<path d="M151.14 33.6623C145.012 33.6623 140.044 28.6983 140.044 22.5749C140.044 16.4515 145.012 11.4875 151.14 11.4875C157.268 11.4875 162.236 16.4515 162.236 22.5749C162.236 28.6983 157.268 33.6623 151.14 33.6623Z" fill="white"/>
<path d="M132.609 44.2925L157.36 37.2485L182.098 44.2925V96.6861L157.36 89.6422L132.609 96.6861L107.872 89.6422V37.2485L132.609 44.2925Z" fill="#FEC65A" stroke="#1D1D1B" stroke-width="2" stroke-linecap="round" stroke-linejoin="round"/>
<path d="M157.346 37.2485V89.6422" stroke="#1D1D1B" stroke-linecap="round" stroke-linejoin="round"/>
<path d="M132.609 44.2925V96.6861" stroke="#1D1D1B" stroke-linecap="round" stroke-linejoin="round"/>
<g clip-path="url(#clip0)">
<path d="M175.419 12C175.419 12 149.662 20.708 138.686 33.2389L139.271 22.662C139.271 22.662 125.017 42.8673 126.043 76.0142C126.043 76.0142 148.579 51.1505 158.685 45.5717C158.685 45.5717 151.429 45.4725 146.868 47.2C146.868 47.2 165.612 29.5859 189.986 24.0779C190.029 24.0638 175.419 12 175.419 12Z" fill="#1D1D1B"/>
</g>
<defs>
<clipPath id="clip0">
<rect width="64" height="64" fill="white" transform="translate(126 12)"/>
</clipPath>
</defs>
</svg>
