<svg width="190" height="171" viewBox="0 0 190 171" fill="none" xmlns="http://www.w3.org/2000/svg">
<path d="M111.481 170.985C109.179 170.985 106.972 170.067 105.344 168.432C103.717 166.797 102.803 164.579 102.803 162.267V157.486C102.794 155.658 103.358 153.873 104.414 152.384C105.47 150.895 106.966 149.777 108.689 149.189L117.815 146.007C117.926 145.969 118.021 145.896 118.086 145.799C118.151 145.702 118.183 145.586 118.177 145.469V144.016C118.175 143.945 118.159 143.876 118.131 143.811C118.102 143.747 118.061 143.689 118.01 143.64C117.959 143.592 117.899 143.554 117.833 143.528C117.768 143.503 117.698 143.491 117.627 143.493H8.75005C6.4544 143.474 4.25816 142.549 2.63484 140.918C1.01152 139.287 0.0911608 137.081 0.0722656 134.774V26.2138C0.0911608 23.9074 1.01152 21.7008 2.63484 20.0698C4.25816 18.4389 6.4544 17.5142 8.75005 17.4952H21.1593C21.3051 17.4952 21.4449 17.4371 21.5479 17.3335C21.651 17.2299 21.7089 17.0895 21.7089 16.943V8.47153C21.7127 6.22592 22.6023 4.07339 24.1828 2.4855C25.7632 0.897613 27.9057 0.0038572 30.1408 1.52588e-05H30.5168C32.7176 0.134292 34.7825 1.11495 36.2826 2.73844C37.7827 4.36194 38.6028 6.50355 38.5727 8.71857V16.8414C38.5727 16.9878 38.6306 17.1282 38.7337 17.2318C38.8368 17.3353 38.9765 17.3935 39.1223 17.3935H47.1926C47.3384 17.3935 47.4782 17.3353 47.5813 17.2318C47.6843 17.1282 47.7422 16.9878 47.7422 16.8414V8.47153C47.7461 6.22592 48.6356 4.07339 50.2161 2.4855C51.7966 0.897613 53.939 0.0038572 56.1741 1.52588e-05H56.5502C58.751 0.134292 60.8158 1.11495 62.3159 2.73844C63.816 4.36194 64.6361 6.50355 64.6061 8.71857V16.8414C64.6061 16.9878 64.664 17.1282 64.767 17.2318C64.8701 17.3353 65.0099 17.3935 65.1556 17.3935H73.226C73.3717 17.3935 73.5115 17.3353 73.6146 17.2318C73.7177 17.1282 73.7756 16.9878 73.7756 16.8414V8.47153C73.7794 6.22592 74.669 4.07339 76.2494 2.4855C77.8299 0.897613 79.9724 0.0038572 82.2075 1.52588e-05H82.5835C84.7843 0.134292 86.8491 1.11495 88.3492 2.73844C89.8493 4.36194 90.6695 6.50355 90.6394 8.71857V16.8414C90.6394 16.9878 90.6973 17.1282 90.8004 17.2318C90.9034 17.3353 91.0432 17.3935 91.189 17.3935H99.2593C99.4051 17.3935 99.5449 17.3353 99.6479 17.2318C99.751 17.1282 99.8089 16.9878 99.8089 16.8414V8.47153C99.8127 6.22592 100.702 4.07339 102.283 2.4855C103.863 0.897613 106.006 0.0038572 108.241 1.52588e-05H108.617C110.818 0.134292 112.882 1.11495 114.383 2.73844C115.883 4.36194 116.703 6.50355 116.673 8.71857V16.8414C116.673 16.9878 116.731 17.1282 116.834 17.2318C116.937 17.3353 117.077 17.3935 117.222 17.3935H129.632C131.927 17.4125 134.123 18.3372 135.747 19.9681C137.37 21.5991 138.29 23.8057 138.309 26.1121V55.8424C144.21 58.5015 147.161 64.5609 147.942 69.9519C148.018 70.4713 148.047 70.9966 148.028 71.5213L147.421 88.1737C147.418 88.3021 147.46 88.4274 147.539 88.5282C147.618 88.629 147.73 88.6989 147.855 88.7259L182.956 95.9913C184.928 96.4013 186.7 97.4797 187.974 99.0458C189.249 100.612 189.949 102.571 189.957 104.594V114.228C189.957 116.54 189.042 118.758 187.415 120.393C185.788 122.028 183.58 122.946 181.279 122.946H180.614L146.857 120.389C146.785 120.385 146.712 120.395 146.644 120.419C146.576 120.444 146.513 120.481 146.46 120.53C146.406 120.578 146.362 120.637 146.331 120.703C146.3 120.768 146.282 120.839 146.278 120.912L145.382 145.179C145.376 145.301 145.412 145.422 145.483 145.522C145.554 145.622 145.655 145.695 145.772 145.731L153.915 148.216C155.721 148.762 157.3 149.884 158.414 151.412C159.529 152.941 160.117 154.793 160.091 156.687V161.686C160.091 163.998 159.176 166.216 157.549 167.851C155.921 169.486 153.714 170.404 151.413 170.404C151.104 170.421 150.795 170.421 150.487 170.404L131.902 168.428L112.652 170.898C112.264 170.953 111.873 170.982 111.481 170.985Z" fill="#1D1D1B"/>
<path d="M134.057 21.5494H3.89062V139.25H134.057V21.5494Z" fill="white"/>
<path d="M29.9239 38.9865C28.7731 38.9865 27.6695 38.5272 26.8558 37.7097C26.0421 36.8922 25.585 35.7834 25.585 34.6272V8.47154C25.585 7.31539 26.0421 6.2066 26.8558 5.38908C27.6695 4.57156 28.7731 4.11226 29.9239 4.11226C31.0746 4.11226 32.1782 4.57156 32.9919 5.38908C33.8056 6.2066 34.2627 7.31539 34.2627 8.47154V34.6272C34.2627 35.7834 33.8056 36.8922 32.9919 37.7097C32.1782 38.5272 31.0746 38.9865 29.9239 38.9865Z" fill="white" stroke="#1D1D1B" stroke-miterlimit="10"/>
<path d="M55.9571 38.9865C54.8063 38.9865 53.7027 38.5272 52.889 37.7097C52.0753 36.8922 51.6182 35.7834 51.6182 34.6272V8.47154C51.6182 7.31539 52.0753 6.2066 52.889 5.38908C53.7027 4.57156 54.8063 4.11226 55.9571 4.11226C57.1078 4.11226 58.2114 4.57156 59.0251 5.38908C59.8388 6.2066 60.2959 7.31539 60.2959 8.47154V34.6272C60.2959 35.7834 59.8388 36.8922 59.0251 37.7097C58.2114 38.5272 57.1078 38.9865 55.9571 38.9865Z" fill="white" stroke="#1D1D1B" stroke-miterlimit="10"/>
<path d="M81.9912 38.9865C80.8405 38.9865 79.7369 38.5272 78.9232 37.7097C78.1095 36.8922 77.6523 35.7834 77.6523 34.6272V8.47154C77.6523 7.31539 78.1095 6.2066 78.9232 5.38908C79.7369 4.57156 80.8405 4.11226 81.9912 4.11226C83.142 4.11226 84.2456 4.57156 85.0593 5.38908C85.873 6.2066 86.3301 7.31539 86.3301 8.47154V34.6272C86.3301 35.7834 85.873 36.8922 85.0593 37.7097C84.2456 38.5272 83.142 38.9865 81.9912 38.9865Z" fill="white" stroke="#1D1D1B" stroke-miterlimit="10"/>
<path d="M108.024 38.9865C106.874 38.9865 105.77 38.5272 104.956 37.7097C104.143 36.8922 103.686 35.7834 103.686 34.6272V8.47154C103.686 7.31539 104.143 6.2066 104.956 5.38908C105.77 4.57156 106.874 4.11226 108.024 4.11226C109.175 4.11226 110.279 4.57156 111.092 5.38908C111.906 6.2066 112.363 7.31539 112.363 8.47154V34.6272C112.363 35.7834 111.906 36.8922 111.092 37.7097C110.279 38.5272 109.175 38.9865 108.024 38.9865Z" fill="white" stroke="#1D1D1B" stroke-miterlimit="10"/>
<path d="M55.9571 47.705H42.9404V60.7829H55.9571V47.705Z" fill="#1D1D1B"/>
<path d="M81.9903 47.705H68.9736V60.7829H81.9903V47.705Z" fill="#1D1D1B"/>
<path d="M108.024 47.705H95.0078V60.7829H108.024V47.705Z" fill="#1D1D1B"/>
<path d="M108.024 73.8607H95.0078V86.9386H108.024V73.8607Z" fill="#1D1D1B"/>
<path d="M81.9903 73.8607H68.9736V86.9386H81.9903V73.8607Z" fill="#1D1D1B"/>
<path d="M55.9571 73.8607H42.9404V86.9386H55.9571V73.8607Z" fill="#1D1D1B"/>
<path d="M29.9239 73.8607H16.9072V86.9386H29.9239V73.8607Z" fill="#1D1D1B"/>
<path d="M29.9239 100.016H16.9072V113.094H29.9239V100.016Z" fill="#1D1D1B"/>
<path d="M55.9571 100.016H42.9404V113.094H55.9571V100.016Z" fill="#1D1D1B"/>
<path d="M120.057 92.0825L77.377 100.801V119.27L120.939 116L122.14 148.695L106.578 154.101V167.513L131.483 164.301L155.752 166.859V153.214L140.898 148.68L142.099 115.986L185.661 119.284V100.83L142.981 92.1116L143.748 71.1144C143.748 71.1144 142.648 58.705 131.483 58.705C120.318 58.705 119.218 71.1144 119.218 71.1144L120.057 92.0825Z" fill="#FEC65A" stroke="#1D1D1B" stroke-miterlimit="10"/>
</svg>
