<svg width="189" height="184" viewBox="0 0 189 184" fill="none" xmlns="http://www.w3.org/2000/svg">
<g clip-path="url(#clip0)">
<path d="M118.248 184.017C117.372 184.015 116.498 183.93 115.637 183.764L11.34 164.016C8.16173 163.409 5.29343 161.723 3.22512 159.245C1.15682 156.767 0.0168578 153.65 0 150.428V47.0934C0.00367913 44.6728 0.640171 42.2949 1.84685 40.1936C3.05353 38.0923 4.78882 36.34 6.88197 35.1092L63.6159 1.89098C66.5303 0.179541 69.9696 -0.420242 73.2947 0.203062L177.609 19.9517C180.796 20.5595 183.671 22.2531 185.74 24.7419C187.809 27.2306 188.944 30.359 188.949 33.5901L188.932 136.924C188.929 139.345 188.292 141.723 187.085 143.824C185.879 145.926 184.143 147.678 182.05 148.909L125.265 182.161C123.123 183.417 120.683 184.081 118.197 184.085L118.248 184.017Z" fill="#1D1D1B"/>
<path d="M119.96 179.713L4.83105 157.905V41.8604L119.96 63.6683V179.713Z" fill="white" stroke="#1D1D1B" stroke-linecap="round" stroke-linejoin="round"/>
<path d="M184.22 142.072L119.96 179.713V63.6683L184.152 26.1121L184.22 142.072Z" fill="#FEC65A" stroke="#1D1D1B" stroke-linecap="round" stroke-linejoin="round"/>
<path d="M119.892 63.7358L4.83105 41.8604L69.0402 4.30418L184.152 26.1121L119.892 63.7358Z" fill="white" stroke="#1D1D1B" stroke-linecap="round" stroke-linejoin="round"/>
<path d="M41.9189 20.1706L155.149 43.0926" stroke="#1D1D1B" stroke-linecap="round" stroke-linejoin="round"/>
<path d="M18.4766 98.4901L20.5106 96.3464C21.4912 97.3872 22.7593 98.1155 24.155 98.4394C25.4772 98.642 26.1044 98.2369 26.1044 97.4435C26.1044 96.6502 25.2738 96.1776 23.9855 95.435L22.0701 94.3378C21.1917 93.924 20.4433 93.2793 19.9056 92.4733C19.368 91.6672 19.0614 90.7303 19.019 89.7635C19.019 87.2485 21.2734 85.6113 24.4602 86.1008C26.3568 86.4206 28.0826 87.3872 29.3419 88.8352L27.5452 90.7932C26.7181 89.9248 25.6397 89.3348 24.4602 89.1053C23.3584 88.9365 22.6634 89.274 22.6634 90.0673C22.6634 90.8607 23.6126 91.367 24.9348 92.0929L26.8163 93.1225C27.6943 93.5232 28.4396 94.1646 28.9649 94.9717C29.4903 95.7787 29.7739 96.7181 29.7827 97.6799C29.7827 100.161 27.6808 102.035 24.0703 101.461C21.9303 101.104 19.966 100.061 18.4766 98.4901Z" fill="#1D1D1B"/>
<path d="M32.0199 86.4552L35.5795 87.0122V90.8606L35.41 92.8693C35.8896 92.4634 36.4508 92.1646 37.0561 91.9928C37.6613 91.821 38.2965 91.7803 38.9188 91.8734C41.4106 92.2616 42.4784 94.2196 42.4784 97.0553V104.111L38.8849 103.554V96.9372C38.8849 95.3674 38.4611 94.8441 37.5628 94.7091C37.1968 94.6618 36.8249 94.7014 36.4772 94.8246C36.1296 94.9478 35.8162 95.1512 35.5626 95.418V103.047L32.0029 102.49V86.4552H32.0199Z" fill="#1D1D1B"/>
<path d="M45.0207 89.6622C45.0171 89.4137 45.0729 89.168 45.1834 88.9451C45.2938 88.7223 45.4559 88.5287 45.6561 88.3804C45.8564 88.2321 46.0891 88.1333 46.3352 88.092C46.5813 88.0507 46.8337 88.0683 47.0717 88.1431C47.615 88.1995 48.1196 88.449 48.4932 88.8458C48.8668 89.2426 49.0843 89.7602 49.1058 90.3036C49.1058 90.5488 49.0482 90.7905 48.9375 91.0094C48.8268 91.2284 48.6662 91.4186 48.4685 91.5646C48.2707 91.7106 48.0414 91.8085 47.7989 91.8504C47.5563 91.8923 47.3073 91.877 47.0717 91.8059C46.5282 91.7537 46.0217 91.5084 45.645 91.1147C45.2683 90.721 45.0467 90.2054 45.0207 89.6622ZM45.2749 93.0381L48.8346 93.5951V105.005L45.2749 104.448V93.0381Z" fill="#1D1D1B"/>
<path d="M51.7508 94.1352L54.6663 94.591L54.9036 95.7387C55.3552 95.3871 55.8724 95.1284 56.4254 94.9777C56.9783 94.827 57.5558 94.7873 58.1242 94.861C60.8702 95.283 62.5992 97.8486 62.5992 101.359C62.5992 105.292 60.2431 107.166 57.7852 106.795C56.7352 106.591 55.7919 106.023 55.124 105.191L55.2257 106.997V110.272L51.666 109.715V94.1521L51.7508 94.1352ZM59.0057 100.887C59.0057 98.8782 58.4293 97.8486 57.158 97.6461C56.8207 97.6013 56.4775 97.6394 56.1584 97.7571C55.8393 97.8748 55.554 98.0685 55.3274 98.3212V102.828C55.7731 103.316 56.3695 103.643 57.0224 103.756C58.1073 103.891 59.0057 103.166 59.0057 100.853V100.887Z" fill="#1D1D1B"/>
<path d="M65.0059 96.2114L67.9214 96.6671L68.1587 97.8149C68.6102 97.4632 69.1275 97.2045 69.6805 97.0538C70.2334 96.9031 70.8109 96.8635 71.3793 96.9372C74.1253 97.3591 75.8543 99.9248 75.8543 103.436C75.8543 107.368 73.4981 109.242 71.0403 108.871C69.9908 108.666 69.048 108.098 68.379 107.267L68.5825 109.056V112.331L65.0228 111.774V96.2114H65.0059ZM72.2607 102.963C72.2607 100.954 71.6844 99.9248 70.4131 99.7222C70.0758 99.6774 69.7326 99.7156 69.4135 99.8333C69.0944 99.951 68.8091 100.145 68.5825 100.397V104.853C69.0282 105.342 69.6246 105.668 70.2775 105.782C71.3793 105.967 72.2607 105.208 72.2607 102.912V102.963Z" fill="#1D1D1B"/>
<path d="M78.007 94.8273C78.0035 94.5788 78.0592 94.333 78.1697 94.1102C78.2802 93.8873 78.4422 93.6938 78.6424 93.5455C78.8427 93.3971 79.0754 93.2983 79.3215 93.257C79.5676 93.2158 79.82 93.2333 80.058 93.3081C80.6026 93.3611 81.1093 93.6095 81.4836 94.0071C81.8578 94.4046 82.0741 94.9241 82.0921 95.4687C82.0958 95.715 82.0405 95.9587 81.931 96.1796C81.8214 96.4005 81.6605 96.5923 81.4618 96.7391C81.2631 96.8858 81.0321 96.9834 80.788 97.0237C80.5439 97.064 80.2937 97.0459 80.058 96.9709C79.5145 96.9188 79.008 96.6734 78.6313 96.2797C78.2546 95.886 78.033 95.3704 78.007 94.8273ZM78.2782 98.2031L81.8379 98.7601V110.17L78.2782 109.613V98.2706V98.2031Z" fill="#1D1D1B"/>
<path d="M84.7365 99.2834L87.652 99.7897L87.8893 101.258C88.3767 100.81 88.9583 100.477 89.5917 100.281C90.2251 100.085 90.8943 100.033 91.5506 100.127C94.0424 100.516 95.1103 102.474 95.1103 105.309V112.365L91.5167 111.808V105.191C91.5167 103.621 91.093 103.098 90.1946 102.963C89.8287 102.916 89.4567 102.955 89.1091 103.079C88.7614 103.202 88.448 103.405 88.1944 103.672V111.301L84.6348 110.744V99.2834H84.7365Z" fill="#1D1D1B"/>
<path d="M97.2969 114.576C97.3079 114.101 97.4822 113.644 97.7907 113.281C98.0991 112.919 98.5232 112.673 98.9919 112.584V112.483C98.662 112.235 98.3951 111.913 98.2126 111.544C98.03 111.175 97.937 110.768 97.941 110.356C97.9604 109.951 98.0886 109.559 98.3122 109.221C98.5359 108.882 98.8467 108.61 99.2123 108.432C98.7429 108.038 98.3616 107.551 98.093 107.001C97.8243 106.452 97.6744 105.852 97.6528 105.242C97.6528 102.457 99.9751 101.444 102.45 101.866C103.08 101.958 103.691 102.146 104.264 102.423L108.467 103.081V105.664L106.772 105.394C106.984 105.843 107.094 106.332 107.094 106.828C107.094 109.495 105.06 110.339 102.518 109.951C102.05 109.874 101.595 109.738 101.162 109.546C101.04 109.625 100.942 109.737 100.879 109.868C100.817 109.999 100.791 110.144 100.806 110.289C100.806 110.812 101.263 111.116 102.501 111.318L104.179 111.487C106.993 111.926 108.586 113.04 108.586 115.099C108.586 117.513 106.094 118.829 102.094 118.205C99.4666 117.783 97.2969 116.669 97.2969 114.576ZM105.179 115.184C105.179 114.508 104.569 114.272 103.484 114.103L102.399 113.935C101.819 113.879 101.25 113.749 100.704 113.546C100.54 113.644 100.404 113.783 100.309 113.948C100.214 114.114 100.163 114.301 100.162 114.491C100.162 115.285 101.128 115.842 102.602 116.078C104.077 116.314 105.179 115.909 105.179 115.184ZM103.857 106.136C103.916 105.682 103.798 105.221 103.527 104.851C103.256 104.48 102.852 104.227 102.399 104.145C102.192 104.108 101.979 104.124 101.779 104.19C101.58 104.256 101.399 104.37 101.255 104.522C101.111 104.674 101.006 104.86 100.951 105.062C100.897 105.264 100.893 105.477 100.941 105.681C100.885 106.137 101.004 106.597 101.275 106.969C101.545 107.342 101.947 107.599 102.399 107.689C103.23 107.824 103.84 107.318 103.84 106.136H103.857Z" fill="#1D1D1B"/>
</g>
<defs>
<clipPath id="clip0">
<rect width="189" height="184" fill="white"/>
</clipPath>
</defs>
</svg>
