<svg width="200" height="189" viewBox="0 0 200 189" fill="none" xmlns="http://www.w3.org/2000/svg">
<path d="M67.3909 100.629C66.6363 100.629 65.8855 100.523 65.1603 100.315L42.6536 93.9142L24.1793 99.1721C22.9781 99.5163 21.7135 99.5778 20.4845 99.3519C19.2555 99.1261 18.0955 98.6189 17.0955 97.8701C16.0955 97.1214 15.2826 96.1514 14.7204 95.0362C14.1583 93.9211 13.8623 92.691 13.8555 91.4424V47.4071C13.8614 45.6469 14.4389 43.9361 15.5013 42.5319C16.5636 41.1277 18.0534 40.1059 19.7467 39.6202L40.423 33.7193C41.8765 33.306 43.4165 33.306 44.87 33.7193L67.3909 40.1489L85.7937 34.8767C86.9994 34.5343 88.2681 34.4759 89.5002 34.7061C90.7323 34.9363 91.8942 35.4488 92.8946 36.2034C93.895 36.958 94.7067 37.9341 95.266 39.055C95.8252 40.1759 96.1167 41.4111 96.1176 42.6636V86.6416C96.1117 88.4019 95.5341 90.1127 94.4718 91.5169C93.4094 92.9211 91.9197 93.9428 90.2264 94.4285L69.6072 100.329C68.8858 100.531 68.14 100.632 67.3909 100.629Z" fill="#1D1D1B"/>
<path d="M48.9314 184.985C52.3272 184.993 55.6462 183.976 58.4531 182.066C61.2599 180.157 63.4236 177.444 64.6603 174.283C64.8976 173.639 65.3229 173.081 65.8812 172.681C66.4395 172.281 67.1051 172.058 67.7917 172.04L132.981 171.726C133.669 171.736 134.338 171.952 134.902 172.347C135.466 172.742 135.897 173.297 136.141 173.941C137.409 177.08 139.59 179.768 142.403 181.655C145.215 183.543 148.53 184.543 151.918 184.528C155.306 184.513 158.612 183.482 161.408 181.569C164.203 179.656 166.36 176.949 167.599 173.798C167.836 173.154 168.261 172.595 168.82 172.196C169.378 171.796 170.044 171.572 170.73 171.555H185.101C186.338 171.549 187.562 171.3 188.703 170.821C189.845 170.343 190.88 169.645 191.751 168.766C192.622 167.888 193.312 166.847 193.78 165.702C194.248 164.558 194.486 163.332 194.481 162.096L194.295 130.02C194.289 128.555 193.942 127.112 193.28 125.805L169.372 78.5833C168.583 77.022 167.374 75.7111 165.882 74.7975C164.389 73.8839 162.671 73.4039 160.921 73.4111L143.877 73.4968C143.703 73.4987 143.53 73.4661 143.369 73.4009C143.208 73.3357 143.061 73.2391 142.937 73.1169C142.814 72.9946 142.715 72.8491 142.648 72.6887C142.581 72.5283 142.547 72.3562 142.547 72.1823V57.2086C142.534 55.9685 142.276 54.7431 141.787 53.6029C141.299 52.4627 140.59 51.4301 139.701 50.5645C138.812 49.6989 137.761 49.0173 136.608 48.5588C135.454 48.1003 134.222 47.874 132.981 47.8929L15.0428 48.4502C12.5536 48.4766 10.1759 49.4861 8.42916 51.2583C6.68237 53.0305 5.70835 55.4214 5.71983 57.9087L6.17739 162.882C6.18302 164.118 6.43232 165.342 6.91107 166.482C7.38982 167.622 8.08865 168.657 8.96764 169.527C9.84664 170.398 10.8886 171.086 12.034 171.554C13.1794 172.022 14.4059 172.26 15.6433 172.255H30.0138C30.7021 172.265 31.3714 172.481 31.935 172.876C32.4985 173.271 32.9302 173.826 33.1739 174.469C34.4417 177.599 36.6224 180.276 39.4325 182.151C42.2426 184.026 45.5523 185.014 48.9314 184.985Z" fill="#1D1D1B"/>
<path d="M9.70898 52.7366L138.4 52.1365L138.514 77.8547L164.253 77.7261L190.234 129.048L190.42 167.625L10.2523 168.468L9.70898 52.7366Z" fill="white" stroke="#1D1D1B" stroke-miterlimit="10"/>
<path d="M177.365 129.105L138.758 129.291L138.515 77.8546" stroke="#1D1D1B" stroke-miterlimit="10"/>
<path d="M48.0732 181.385C55.1806 181.385 60.9423 175.627 60.9423 168.525C60.9423 161.424 55.1806 155.666 48.0732 155.666C40.9658 155.666 35.2041 161.424 35.2041 168.525C35.2041 175.627 40.9658 181.385 48.0732 181.385Z" fill="white" stroke="#1D1D1B" stroke-miterlimit="10"/>
<path d="M151.026 181.385C158.134 181.385 163.895 175.627 163.895 168.525C163.895 161.424 158.134 155.666 151.026 155.666C143.919 155.666 138.157 161.424 138.157 168.525C138.157 175.627 143.919 181.385 151.026 181.385Z" fill="white" stroke="#1D1D1B" stroke-miterlimit="10"/>
<path fill-rule="evenodd" clip-rule="evenodd" d="M125.102 109.217C125.102 109.217 127.476 102.315 124.845 99.215C122.214 96.1145 115.407 93.3713 112.433 92.0711C109.459 90.7709 100.25 85.7272 97.6051 80.5836C94.9597 75.44 92.1428 71.7251 87.9961 72.7538C83.8494 73.7826 77.9868 76.9545 75.6704 86.013C73.354 95.0715 79.4739 105.516 79.4739 105.516C79.4739 105.516 74.6695 105.616 74.0689 113.374C73.4684 121.133 79.1451 128.591 79.1451 128.591C79.1451 128.591 74.5837 130.82 77.0145 138.478C79.4453 146.136 84.4357 148.808 89.4403 147.565C94.445 146.322 104.383 142.579 106.356 137.164C106.356 137.164 105.684 134.306 101.566 137.264C97.4478 140.221 89.6548 143.479 86.3518 137.549C83.0487 131.62 86.123 131.448 88.5109 131.32C90.8988 131.191 99.1493 129.977 99.564 127.919C99.9787 125.862 99.3495 125.376 97.3763 125.419C95.403 125.462 86.7378 126.976 84.7789 123.104C82.8199 119.232 81.2756 113.331 83.878 112.688C86.4804 112.046 87.7816 114.975 91.8998 115.046C96.0179 115.117 99.9501 115.046 101.251 112.288C102.553 109.531 98.2056 110.017 96.4468 109.574C94.6881 109.131 86.8808 105.845 84.6788 100.101C82.4767 94.3571 85.4938 87.7132 86.5662 87.4561C87.6387 87.1989 94.1876 92.9569 102.452 97.1575C110.717 101.358 113.992 99.5293 118.181 102.387C123 105.659 121.427 112.388 125.088 109.159" fill="#DF0A15"/>
<path d="M48.8597 33.6622C54.9878 33.6622 59.9557 28.6982 59.9557 22.5748C59.9557 16.4514 54.9878 11.4874 48.8597 11.4874C42.7315 11.4874 37.7637 16.4514 37.7637 22.5748C37.7637 28.6982 42.7315 33.6622 48.8597 33.6622Z" fill="white"/>
<path d="M67.3912 44.2923L42.6396 37.2484L17.9023 44.2923V96.686L42.6396 89.642L67.3912 96.686L92.1284 89.642V37.2484L67.3912 44.2923Z" fill="#FEC65A" stroke="#1D1D1B" stroke-width="2" stroke-linecap="round" stroke-linejoin="round"/>
<path d="M42.6543 37.2484V89.642" stroke="#1D1D1B" stroke-linecap="round" stroke-linejoin="round"/>
<path d="M67.3906 44.2924V96.686" stroke="#1D1D1B" stroke-linecap="round" stroke-linejoin="round"/>
<path d="M63.602 15.0451C64.9267 17.7129 65.5249 20.6821 65.3367 23.6543C65.1484 26.6264 64.1803 29.4966 62.5296 31.9762L50.6328 66.9529C50.5099 67.3279 50.2717 67.6545 49.9519 67.8861C49.6322 68.1177 49.2474 68.2424 48.8526 68.2424C48.4577 68.2424 48.0729 68.1177 47.7532 67.8861C47.4335 67.6545 47.1952 67.3279 47.0723 66.9529L35.1899 31.9762C33.3335 29.2603 32.3371 26.0494 32.3301 22.7605C32.3301 11.1731 44.2983 2.37174 56.5526 8.04403C59.6595 9.4677 62.1583 11.9493 63.602 15.0451ZM44.3269 29.7473C45.9377 30.7669 47.8479 31.208 49.743 30.9982C51.6382 30.7883 53.4053 29.9399 54.7536 28.5927C56.1019 27.2455 56.9509 25.4797 57.1609 23.586C57.371 21.6923 56.9295 19.7836 55.9091 18.1741C55.3341 17.1374 54.4762 16.2852 53.4354 15.7166C51.8246 14.6971 49.9144 14.2559 48.0193 14.4658C46.1241 14.6756 44.357 15.524 43.0087 16.8712C41.6604 18.2184 40.8114 19.9842 40.6014 21.8779C40.3914 23.7716 40.8329 25.6803 41.8532 27.2898C42.4282 28.3265 43.2861 29.1788 44.3269 29.7473Z" fill="#1D1D1B"/>
</svg>
