<?xml version="1.0" encoding="utf-8"?>
<!-- Generator: Adobe Illustrator 22.0.0, SVG Export Plug-In . SVG Version: 6.00 Build 0)  -->
<svg version="1.1" id="Layer_1" xmlns="http://www.w3.org/2000/svg" xmlns:xlink="http://www.w3.org/1999/xlink" x="0px" y="0px"
	 viewBox="0 0 61.9 51.8" style="enable-background:new 0 0 61.9 51.8;" xml:space="preserve">
<style type="text/css">
	.st0{fill:#FFFFFF;}
	.st1{fill:none;stroke:#000000;stroke-width:2.8854;stroke-miterlimit:10;}
	.st2{fill:none;stroke:#000000;stroke-width:3.0938;stroke-miterlimit:10;}
	.st3{fill:none;stroke:#000000;stroke-width:2.9439;stroke-miterlimit:10;}
	.st4{stroke:#000000;stroke-width:0.9055;stroke-miterlimit:10;}
	.st5{stroke:#000000;stroke-width:0.8832;stroke-miterlimit:10;}
	.st6{fill:none;stroke:#000000;stroke-width:2.7176;stroke-linecap:round;stroke-linejoin:round;stroke-miterlimit:10;}
	.st7{stroke:#000000;stroke-width:0.985;stroke-linecap:round;stroke-linejoin:round;stroke-miterlimit:10;}
	.st8{fill:none;stroke:#000000;stroke-width:7;stroke-miterlimit:10;}
	.st9{fill:none;stroke:#000000;stroke-width:5;stroke-miterlimit:10;}
	.st10{fill:none;stroke:#000000;stroke-width:2;stroke-miterlimit:10;}
</style>
<g>
	<path class="st4" d="M16.9,29.4H4.4c-2.2,0-4-1.8-4-4v-9c0-2.2,1.8-4,4-4h12.5c2.2,0,4,1.8,4,4v9C20.9,27.6,19.1,29.4,16.9,29.4z"
		/>
	<rect x="5.9" y="12.4" class="st5" width="19.5" height="17"/>
	<path class="st6" d="M20.9,28.3c7.1,1,17.3,3,21.5,5.2c7.3,3.8,9.7,6.4,9.7,6.4h3.4V21.6v-0.4V1.9H52c0,0-10.1,8.9-31.1,11.6V28.3z
		"/>
	<path class="st7" d="M15.9,51.4c0,0-4,0-4-6s0-17,0-17h10v17c0,0,0,5,3,6C22.9,51.4,15.9,51.4,15.9,51.4z"/>
	<path d="M55.4,17.5c0.7-0.5,1.5-0.9,2.4-0.9c2.1,0,3.9,1.7,3.9,3.9s-1.7,3.9-3.9,3.9c-0.9,0-1.8-0.3-2.4-0.9"/>
</g>
</svg>
