<?xml version="1.0" encoding="utf-8"?>
<!-- Generator: Adobe Illustrator 22.0.0, SVG Export Plug-In . SVG Version: 6.00 Build 0)  -->
<svg version="1.1" id="Layer_1" xmlns="http://www.w3.org/2000/svg" xmlns:xlink="http://www.w3.org/1999/xlink" x="0px" y="0px"
	 viewBox="0 0 55.2 54.1" style="enable-background:new 0 0 55.2 54.1;" xml:space="preserve">
<style type="text/css">
	.st0{fill:#FFFFFF;}
	.st1{fill:none;stroke:#000000;stroke-width:2.8854;stroke-miterlimit:10;}
	.st2{fill:none;stroke:#000000;stroke-width:3.0938;stroke-miterlimit:10;}
	.st3{fill:none;stroke:#000000;stroke-width:2.9439;stroke-miterlimit:10;}
	.st4{stroke:#000000;stroke-width:0.9055;stroke-miterlimit:10;}
	.st5{stroke:#000000;stroke-width:0.8832;stroke-miterlimit:10;}
	.st6{fill:none;stroke:#000000;stroke-width:2.7176;stroke-linecap:round;stroke-linejoin:round;stroke-miterlimit:10;}
	.st7{stroke:#000000;stroke-width:0.985;stroke-linecap:round;stroke-linejoin:round;stroke-miterlimit:10;}
	.st8{fill:none;stroke:#000000;stroke-width:7;stroke-miterlimit:10;}
	.st9{fill:none;stroke:#000000;stroke-width:5;stroke-miterlimit:10;}
	.st10{fill:none;stroke:#000000;stroke-width:2;stroke-miterlimit:10;}
</style>
<circle cx="27.6" cy="26.9" r="27"/>
<g>
	<path class="st0" d="M24.8,33.9c0.2-0.9,0.4-1.6,0.8-2.7c0.6-1.7,1.5-3.3,2.7-4.7c0.3-0.4,0.6-0.7,0.9-1.1c0.2-0.2,0.5-0.5,0.9-0.9
		c0.9-0.9,1.6-1.6,1.9-2.1c0.5-0.8,0.8-1.6,0.8-2.6c0-1.5-0.4-2.7-1.3-3.5c-0.8-0.8-2-1.2-3.5-1.2c-1.4,0-2.5,0.5-3.2,1.4
		c-0.8,1-1.2,2.6-1.3,4.8h-6.8c0-3.9,1.2-7.1,3.5-9.5c2.2-2.3,4.9-3.5,8.2-3.5c3.2,0,6,1.1,8.3,3.3c2.3,2.2,3.4,4.9,3.4,8.1
		c0,2-0.5,3.7-1.4,5.3c-0.6,0.9-1.6,2.2-3,3.7L35,29.4c-1.2,1.1-2,2.1-2.4,3c-0.3,0.6-0.6,1-0.7,1.5 M24.6,36.6h6.8v7.1h-6.8V36.6z"
		/>
</g>
</svg>
