<svg width="14" height="14" viewBox="0 0 14 14" fill="none" xmlns="http://www.w3.org/2000/svg">
<g clip-path="url(#clip0)">
<path d="M13.9529 12.1912L11.956 4.20331C11.8521 3.78796 11.5065 3.50003 11.1119 3.50003H9.46447C9.56209 3.22522 9.62525 2.93347 9.62525 2.62503C9.62525 1.17526 8.45002 3.05176e-05 7.00025 3.05176e-05C5.55049 3.05176e-05 4.37525 1.17526 4.37525 2.62503C4.37525 2.93347 4.43814 3.22522 4.53603 3.50003H2.88857C2.494 3.50003 2.1481 3.78823 2.04447 4.20331L0.0470084 12.1912C-0.180765 13.1021 0.447868 13.9997 1.3133 13.9997H12.6869C13.5521 13.9997 14.1807 13.1021 13.9529 12.1912ZM6.99998 3.49976C6.51763 3.49976 6.12498 3.1071 6.12498 2.62476C6.12498 2.14241 6.51763 1.74976 6.99998 1.74976C7.48232 1.74976 7.87498 2.14241 7.87498 2.62476C7.87498 3.1071 7.48232 3.49976 6.99998 3.49976Z" fill="#999999"/>
</g>
<defs>
<clipPath id="clip0">
<rect width="14" height="14" fill="white"/>
</clipPath>
</defs>
</svg>
