<svg width="89" height="86" viewBox="0 0 89 86" fill="none" xmlns="http://www.w3.org/2000/svg">
<g clip-path="url(#clip0)">
<path d="M44.4995 75.314C43.9454 75.3127 43.3974 75.1982 42.8887 74.9774C42.38 74.7566 41.9213 74.4341 41.5405 74.0297L1.11995 30.9539C0.573133 30.3729 0.208142 29.6433 0.0702554 28.8558C-0.0676311 28.0682 0.0276418 27.2574 0.344273 26.5237C0.653205 25.7868 1.17318 25.1588 1.83815 24.7194C2.50312 24.28 3.28308 24.0491 4.07895 24.056H16.4895V4.09113C16.4914 3.00668 16.9211 1.96719 17.6844 1.20037C18.4476 0.433555 19.4823 0.00190756 20.5618 0H68.2003C69.2798 0.00190756 70.3144 0.433555 71.0777 1.20037C71.841 1.96719 72.2707 3.00668 72.2726 4.09113V24.0488H84.913C85.7085 24.0482 86.4868 24.2816 87.1518 24.7203C87.8167 25.159 88.3393 25.7838 88.6548 26.5175C88.9703 27.2512 89.0649 28.0616 88.9271 28.8488C88.7892 29.6359 88.4249 30.3653 87.8791 30.9467L47.4585 74.0225C47.0784 74.4283 46.62 74.752 46.1113 74.974C45.6026 75.1961 45.0542 75.3118 44.4995 75.314Z" fill="#9A9A9A"/>
<path d="M18.5366 25.629H4.07908C3.6809 25.6277 3.2911 25.744 2.95811 25.9633C2.62512 26.1827 2.36359 26.4954 2.206 26.8628C2.04841 27.2302 2.0017 27.6359 2.07166 28.0297C2.14163 28.4235 2.32521 28.788 2.59958 29.0779L44.4997 73.7339L86.407 29.0779C86.6813 28.788 86.8649 28.4235 86.9349 28.0297C87.0048 27.6359 86.9581 27.2302 86.8005 26.8628C86.6429 26.4954 86.3814 26.1827 86.0484 25.9633C85.7154 25.744 85.3256 25.6277 84.9275 25.629H70.2473V1.58017H18.5366V25.629Z" fill="white"/>
<path d="M73.5872 79.5062H15.4126C13.6276 79.5062 12.1807 80.9599 12.1807 82.7531C12.1807 84.5463 13.6276 86 15.4126 86H73.5872C75.3722 86 76.8191 84.5463 76.8191 82.7531C76.8191 80.9599 75.3722 79.5062 73.5872 79.5062Z" fill="#9A9A9A"/>
<path fill-rule="evenodd" clip-rule="evenodd" d="M37.3185 16.4583C37.3185 16.4583 36.6003 14.474 37.3759 13.5721C38.1516 12.6702 40.0764 11.8765 40.9239 11.4941C41.7713 11.1117 44.4143 9.65417 45.1613 8.14616C45.9082 6.63815 46.7126 5.58471 47.9048 5.87332C49.097 6.16194 50.7776 7.07107 51.4527 9.67582C52.1279 12.2806 50.3898 15.3038 50.3898 15.3038C50.3898 15.3038 51.7688 15.3038 51.9483 17.5622C52.1279 19.8206 50.5119 21.9636 50.5119 21.9636C50.5119 21.9636 51.819 22.5985 51.1367 24.8064C50.4544 27.0144 49.0252 27.7936 47.5888 27.4401C46.1524 27.0865 43.2796 25.997 42.7266 24.4385C42.7266 24.4385 42.9133 23.6087 44.0983 24.4385C45.2834 25.2682 47.5242 26.2134 48.4578 24.5034C49.3915 22.7934 48.5153 22.7645 47.8258 22.7284C47.1363 22.6923 44.7734 22.3604 44.6513 21.7616C44.5292 21.1627 44.7088 21.04 45.2762 21.04C45.8436 21.04 48.3285 21.4729 48.8672 20.3546C49.4059 19.2362 49.8583 17.5333 49.1114 17.353C48.3645 17.1726 47.991 18.0168 46.8203 18.0745C45.6497 18.1322 44.5149 18.0745 44.1342 17.288C43.7536 16.5015 45.0033 16.6314 45.506 16.5015C46.0087 16.3717 48.2424 15.412 48.8672 13.7525C49.492 12.093 48.6158 10.1809 48.307 10.1448C47.9982 10.1087 46.1524 11.7394 43.7608 12.9804C41.3691 14.2215 40.457 13.702 39.2576 14.5101C37.8787 15.4626 38.3383 17.3963 37.2897 16.4727" fill="#1D1D1B"/>
<path d="M38.9416 34.1287H29.0088V32.3104H32.7578V30.9323H35.1638V32.3104H38.9128V34.1287H38.9416ZM33.9859 40.0597C31.501 40.0597 29.8563 38.9919 29.8563 37.3035C29.8563 35.6151 31.501 34.5255 33.9859 34.5255C36.4709 34.5255 38.1156 35.5934 38.1156 37.3035C38.1156 39.0135 36.4853 40.0597 33.9859 40.0597ZM33.5838 46.0846H42.7624V47.8451H31.185V43.5159H39.904V42.6356H31.1634V40.8751H42.2812V45.2043H33.5838V46.1423V46.0846ZM33.9859 38.3785C35.0992 38.3785 35.8174 38.025 35.8174 37.3323C35.8174 36.6396 35.0992 36.2645 33.9859 36.2645C32.8727 36.2645 32.1545 36.618 32.1545 37.3323C32.1545 38.0466 32.8655 38.3785 33.9859 38.3785ZM44.5005 34.641V36.6252H42.2669V40.1896H39.8537V31.0405H42.2669V34.6482H44.5005V34.641Z" fill="#1D1D1B"/>
<path d="M50.684 40.7235C48.1057 40.7235 46.0947 38.9053 46.0947 36.4448C46.0947 33.9844 48.1057 32.1156 50.684 32.1156C53.2624 32.1156 55.2518 33.9122 55.2518 36.4448C55.2518 38.9774 53.2624 40.7235 50.684 40.7235ZM50.684 38.6311C51.1065 38.6155 51.515 38.4755 51.8588 38.2283C52.2026 37.9812 52.4664 37.638 52.6174 37.2413C52.7685 36.8447 52.8001 36.4122 52.7082 35.9976C52.6164 35.5831 52.4052 35.2049 52.1009 34.91C51.7967 34.6152 51.4128 34.4168 50.9972 34.3395C50.5815 34.2622 50.1524 34.3094 49.7633 34.4753C49.3742 34.6413 49.0422 34.9185 48.8088 35.2725C48.5754 35.6266 48.4507 36.0418 48.4504 36.4665C48.4439 36.759 48.4979 37.0497 48.609 37.3202C48.7201 37.5907 48.8859 37.835 49.0958 38.0378C49.3058 38.2406 49.5553 38.3974 49.8287 38.4983C50.1021 38.5992 50.3934 38.6419 50.684 38.6239V38.6311ZM60.3008 45.7527V47.6792H48.6372V42.0223H51.0503V45.7527H60.3008ZM59.8771 43.2201H57.428V31.0766H59.8627V43.2201H59.8771Z" fill="#1D1D1B"/>
</g>
<defs>
<clipPath id="clip0">
<rect width="89" height="86" fill="white"/>
</clipPath>
</defs>
</svg>
