<?xml version="1.0" encoding="utf-8"?>
<!-- Generator: Adobe Illustrator 22.0.0, SVG Export Plug-In . SVG Version: 6.00 Build 0)  -->
<svg version="1.1" id="Layer_1" xmlns="http://www.w3.org/2000/svg" xmlns:xlink="http://www.w3.org/1999/xlink" x="0px" y="0px"
	 viewBox="0 0 222.2 121.4" style="enable-background:new 0 0 222.2 121.4;" xml:space="preserve">
<style type="text/css">
	.st0{clip-path:url(#SVGID_2_);}
	.st1{fill:#1D1D1B;}
	.st2{fill:#FFFFFF;stroke:#1D1D1B;stroke-width:0.8644;stroke-miterlimit:10;}
	.st3{fill:#FEC65A;stroke:#1D1D1B;stroke-width:0.8644;stroke-miterlimit:10;}
	.st4{fill:#FFFFFF;stroke:#1D1D1B;stroke-width:0.8644;stroke-linecap:round;stroke-linejoin:round;}
	.st5{fill:none;stroke:#1D1D1B;stroke-width:1.7289;stroke-linecap:round;stroke-linejoin:round;}
	.st6{clip-path:url(#SVGID_4_);}
	.st7{fill:#FFFFFF;stroke:#1D1D1B;stroke-width:0.8627;stroke-miterlimit:10;}
	.st8{fill:#FEC65A;stroke:#1D1D1B;stroke-width:0.8627;stroke-miterlimit:10;}
	.st9{fill:#FFFFFF;stroke:#1D1D1B;stroke-width:0.8627;stroke-linecap:round;stroke-linejoin:round;}
	.st10{fill:none;stroke:#1D1D1B;stroke-width:1.7255;stroke-linecap:round;stroke-linejoin:round;}
	.st11{fill:#DF0A15;}
</style>
<g>
	<defs>
		<rect id="SVGID_1_" x="0.5" y="0" width="122.2" height="103.7"/>
	</defs>
	<clipPath id="SVGID_2_">
		<use xlink:href="#SVGID_1_"  style="overflow:visible;"/>
	</clipPath>
	<g class="st0">
		<path class="st1" d="M25.5,103.8c-1.9,0-3.7-0.8-5.1-2.1c-1.3-1.3-2.1-3.2-2.1-5.1V33.9c0-0.2,0-0.4-0.1-0.6
			c-0.1-0.2-0.2-0.4-0.3-0.5c-0.1-0.1-0.3-0.3-0.5-0.3c-0.2-0.1-0.4-0.1-0.6-0.1H7.6c-1.9,0-3.7-0.8-5.1-2.1c-1.3-1.3-2.1-3.2-2.1-5
			V7.2c0-1.9,0.8-3.7,2.1-5C3.9,0.8,5.7,0,7.6,0h80.1c1.9,0,3.7,0.8,5.1,2.1c1.3,1.3,2.1,3.2,2.1,5v18.1c0,1.9-0.8,3.7-2.1,5
			c-1.3,1.3-3.2,2.1-5.1,2.1h-7.4c-0.4,0-0.8,0.2-1.1,0.4c-0.3,0.3-0.4,0.7-0.4,1.1v62.7c0,1.9-0.8,3.7-2.1,5.1
			c-1.3,1.3-3.2,2.1-5.1,2.1H25.5z"/>
		<path class="st1" d="M115.7,44.6H97.2c-3.8,0-6.9,3.1-6.9,6.9v45.3c0,3.8,3.1,6.9,6.9,6.9h18.5c3.8,0,6.9-3.1,6.9-6.9V51.6
			C122.7,47.7,119.6,44.6,115.7,44.6z"/>
		<path class="st2" d="M48.3,29.4H21.5v71.4h26.8V29.4z"/>
		<path class="st2" d="M76.4,29.4H48.3v71.4h28.1V29.4z"/>
		<path class="st2" d="M92.5,2.7H3.7v26.8h88.8V2.7z"/>
		<path class="st1" d="M82.1,84.1c-1,0-1.9-0.3-2.7-0.9L66,73.1c-0.6-0.4-1-1-1.3-1.6c-0.3-0.6-0.5-1.3-0.5-2s0.2-1.4,0.5-2
			C65,67,65.4,66.4,66,66l13.5-10.1c0.8-0.6,1.7-0.9,2.7-0.9c1.2,0,2.3,0.5,3.1,1.3c0.8,0.8,1.3,2,1.3,3.1v2.8H91
			c1.2,0,2.3,0.5,3.1,1.3c0.8,0.8,1.3,2,1.3,3.1v5.6c0,1.2-0.5,2.3-1.3,3.1c-0.8,0.8-2,1.3-3.1,1.3h-4.5v2.8c0,1.2-0.5,2.3-1.3,3.1
			C84.4,83.7,83.3,84.1,82.1,84.1z"/>
		<path class="st3" d="M119.7,100.8H92.9V74h8.9h17.9V100.8z"/>
		<path class="st2" d="M110.8,74h-8.9V83h8.9V74z"/>
		<path class="st3" d="M119.7,74H92.9V47.3h8.9h17.9V74z"/>
		<path class="st2" d="M110.8,47.3h-8.9v8.9h8.9V47.3z"/>
		<path class="st1" d="M31.7,15V8.7h2.8v6.6c0,2.2,0.7,3,2,3c1.3,0,2-0.8,2-3V8.7h2.7V15c0,4-1.6,5.8-4.7,5.8
			C33.4,20.8,31.7,19,31.7,15z"/>
		<path class="st1" d="M43.9,8.7h4.1c2.6,0,4.8,0.9,4.8,3.8s-2.2,4-4.7,4h-1.4v4h-2.8V8.7z M48,14.4c1.4,0,2-0.7,2-1.8
			S49.3,11,47.9,11h-1.2v3.4H48L48,14.4z"/>
		<path class="st1" d="M53.9,19l1.6-2c0.8,0.7,1.8,1.1,2.9,1.2c1.1,0,1.5-0.4,1.5-1c0-0.6-0.7-0.9-1.7-1.3l-1.5-0.6
			c-0.7-0.2-1.3-0.7-1.7-1.2c-0.4-0.6-0.7-1.3-0.7-2c0-2,1.8-3.6,4.3-3.6c1.4,0,2.8,0.6,3.8,1.6L61,11.9c-0.7-0.6-1.5-0.9-2.4-0.9
			c-0.9,0-1.4,0.3-1.4,1s0.7,0.9,1.8,1.3l1.5,0.6c0.7,0.2,1.3,0.6,1.7,1.2c0.4,0.6,0.6,1.3,0.6,2c0,2-1.7,3.7-4.5,3.7
			C56.7,20.8,55.1,20.1,53.9,19z"/>
		<path class="st4" d="M84,65.1v-8.9L66.2,69.6L84,83V74h8.9v-8.9H84z"/>
		<path class="st5" d="M57.2,56.2v8.9"/>
		<path class="st5" d="M39.4,56.2v8.9"/>
	</g>
</g>
<g>
	<defs>
		<rect id="SVGID_3_" x="100.5" y="17.8" width="121.9" height="103.5"/>
	</defs>
	<clipPath id="SVGID_4_">
		<use xlink:href="#SVGID_3_"  style="overflow:visible;"/>
	</clipPath>
	<g class="st6">
		<path class="st1" d="M125.4,121.3c-1.9,0-3.7-0.8-5-2.1c-1.3-1.3-2.1-3.1-2.1-5V51.6c0-0.2,0-0.4-0.1-0.6
			c-0.1-0.2-0.2-0.4-0.3-0.5c-0.1-0.1-0.3-0.3-0.5-0.3c-0.2-0.1-0.4-0.1-0.6-0.1h-9.2c-1.9,0-3.7-0.8-5-2.1c-1.3-1.3-2.1-3.1-2.1-5
			V24.9c0-1.9,0.8-3.7,2.1-5c1.3-1.3,3.2-2.1,5-2.1h80c1.9,0,3.7,0.8,5,2.1c1.3,1.3,2.1,3.1,2.1,5V43c0,1.9-0.8,3.7-2.1,5
			c-1.3,1.3-3.2,2.1-5,2.1h-7.4c-0.4,0-0.8,0.2-1.1,0.4c-0.3,0.3-0.4,0.7-0.4,1.1v62.6c0,1.9-0.8,3.7-2.1,5c-1.3,1.3-3.2,2.1-5,2.1
			H125.4z"/>
		<path class="st1" d="M215.5,62.3H197c-3.8,0-6.9,3.1-6.9,6.9v45.2c0,3.8,3.1,6.9,6.9,6.9h18.5c3.8,0,6.9-3.1,6.9-6.9V69.2
			C222.4,65.4,219.3,62.3,215.5,62.3z"/>
		<path class="st7" d="M148.2,47.2h-26.7v71.2h26.7V47.2z"/>
		<path class="st7" d="M176.2,47.2h-28v71.2h28V47.2z"/>
		<path class="st7" d="M192.3,20.4h-88.6v26.7h88.6V20.4z"/>
		<path class="st1" d="M181.9,101.7c-1,0-1.9-0.3-2.7-0.9l-13.5-10.1c-0.6-0.4-1-0.9-1.3-1.6c-0.3-0.6-0.5-1.3-0.5-2
			c0-0.7,0.2-1.4,0.5-2c0.3-0.6,0.8-1.2,1.3-1.6l13.5-10.1c0.8-0.6,1.7-0.9,2.7-0.9c1.2,0,2.3,0.5,3.1,1.3c0.8,0.8,1.3,2,1.3,3.1V80
			h4.5c1.2,0,2.3,0.5,3.1,1.3c0.8,0.8,1.3,2,1.3,3.1V90c0,1.2-0.5,2.3-1.3,3.1c-0.8,0.8-2,1.3-3.1,1.3h-4.5v2.8
			c0,1.2-0.5,2.3-1.3,3.1C184.2,101.3,183.1,101.7,181.9,101.7z"/>
		<path class="st8" d="M219.5,118.4h-26.7V91.7h8.9h17.8V118.4z"/>
		<path class="st7" d="M210.6,91.7h-8.9v8.9h8.9V91.7z"/>
		<path class="st8" d="M219.5,91.7h-26.7V65h8.9h17.8V91.7z"/>
		<path class="st7" d="M210.6,65h-8.9v8.9h8.9V65z"/>
		<path class="st9" d="M183.8,82.8v-8.9L166,87.2l17.8,13.4v-8.9h8.9v-8.9H183.8z"/>
		<path class="st10" d="M157.1,73.9v8.9"/>
		<path class="st10" d="M139.3,73.9v8.9"/>
		<path class="st11" d="M143.1,33.3c0,0-0.6-1.8,0.1-2.7c1-0.9,2.1-1.5,3.3-2c0.8-0.3,3.3-1.7,4-3.1c0.7-1.4,1.5-2.4,2.6-2.1
			c0.8,0.2,1.6,0.7,2.2,1.3c0.6,0.6,1,1.4,1.2,2.3c0.6,2.4-1,5.3-1,5.3s1.3,0,1.5,2.1c0,1.5-0.5,2.9-1.3,4.1c0,0,1.2,0.6,0.6,2.7
			c-0.6,2.1-2,2.8-3.3,2.5c-1.4-0.3-4-1.3-4.6-2.8c0,0,0.2-0.8,1.3,0c1.1,0.8,3.2,1.7,4.1,0.1c0.9-1.6,0-1.6-0.6-1.7
			c-0.6,0-2.9-0.3-3-0.9c-0.1-0.6,0.1-0.7,0.6-0.7c0.5,0,2.9,0.4,3.4-0.6c0.5-1,0.9-2.6,0.2-2.8c-0.7-0.2-1,0.6-2.2,0.6
			c-1.1,0-2.2,0-2.5-0.7c-0.4-0.7,0.8-0.6,1.3-0.7c0.5-0.1,2.6-1,3.2-2.6c0.2-0.6,0.3-1.2,0.2-1.8c-0.1-0.6-0.3-1.2-0.7-1.6
			c-0.3-0.1-2,1.5-4.3,2.7c-2.2,1.2-3.1,0.7-4.2,1.4C143.6,32.3,144.1,34.1,143.1,33.3"/>
	</g>
</g>
</svg>
