<svg width="206" height="176" viewBox="0 0 206 176" fill="none" xmlns="http://www.w3.org/2000/svg">
<g clip-path="url(#clip0)">
<path d="M115.697 176C114.363 176.001 113.033 175.838 111.739 175.516L12.3607 150.73C8.83732 149.843 5.71207 147.807 3.48128 144.945C1.2505 142.083 0.0420791 138.56 0.0479496 134.934V53.1933C0.0374027 50.1667 0.877681 47.1978 2.47338 44.6236C4.06907 42.0495 6.35625 39.9732 9.07522 38.6307L82.9674 1.71688C86.4491 -0.0209845 90.4393 -0.458375 94.2163 0.483824L193.594 25.2699C197.128 26.1457 200.265 28.1774 202.506 31.0406C204.746 33.9038 205.96 37.4333 205.954 41.0656V122.744C205.966 125.769 205.128 128.737 203.535 131.311C201.942 133.885 199.659 135.962 196.942 137.307L123.003 174.252C120.739 175.378 118.243 175.966 115.713 175.969L115.697 176Z" fill="#1D1D1B"/>
<path d="M117.073 172.238L4.42773 144.143V45.8106L117.073 73.9056V172.238Z" fill="white" stroke="#1D1D1B" stroke-miterlimit="10"/>
<path d="M201.557 130.096L117.073 172.238V73.9056L201.557 31.763V130.096Z" fill="#FEC65A" stroke="#1D1D1B" stroke-linecap="round" stroke-linejoin="round"/>
<path d="M201.557 31.763L117.073 73.9056L4.42773 45.8106L88.9117 3.66797L201.557 31.763Z" fill="white" stroke="#1D1D1B" stroke-linecap="round" stroke-linejoin="round"/>
<path fill-rule="evenodd" clip-rule="evenodd" d="M33.4961 109.758C33.4961 109.758 31.3371 103.608 33.6839 100.893C36.0306 98.1767 42.101 95.6325 44.7606 94.4619C47.4203 93.2912 55.7123 88.7492 57.9808 84.0823C60.2494 79.4154 62.8308 76.1532 66.5387 77.0429C70.2466 77.9326 75.4721 80.7577 77.6155 88.8428C79.7589 96.928 74.2987 106.277 74.2987 106.277C74.2987 106.277 78.6012 106.277 79.1644 113.27C79.7276 120.263 74.6899 126.912 74.6899 126.912C74.6899 126.912 78.7733 128.878 76.6299 135.73C74.4865 142.582 70.0276 144.986 65.5531 143.909C61.0786 142.832 52.1452 139.492 50.3773 134.544C50.3773 134.544 50.9561 131.969 54.664 134.544C58.3719 137.12 65.3497 140.054 68.2753 134.731C71.201 129.409 68.4474 129.347 66.3197 129.222C64.1919 129.097 56.7918 128.067 56.4163 126.225C56.0408 124.383 56.604 123.946 58.3563 123.977C60.1086 124.009 67.8842 125.335 69.6208 121.855C71.3574 118.374 72.7499 113.114 70.3874 112.49C68.025 111.865 66.8986 114.55 63.222 114.628C59.5453 114.706 56.0095 114.628 54.8361 112.209C53.6627 109.789 57.5584 110.164 59.1229 109.758C60.6874 109.352 67.6652 106.387 69.6208 101.252C71.5765 96.1164 68.8386 90.2008 67.8842 89.9666C66.9299 89.7325 61.0629 95.1018 53.7097 98.9415C46.3564 102.781 43.3995 101.111 39.629 103.624C35.3266 106.574 36.766 112.63 33.4805 109.696" fill="#DF0A15"/>
<path d="M52.1455 22.0078L164.791 50.1029" stroke="#1D1D1B" stroke-linecap="round" stroke-linejoin="round"/>
<path d="M33.616 171H40.266V169.628H37.69C37.186 169.628 36.542 169.67 36.01 169.726C38.194 167.64 39.776 165.582 39.776 163.594C39.776 161.732 38.558 160.5 36.668 160.5C35.324 160.5 34.414 161.088 33.532 162.04L34.442 162.936C34.988 162.306 35.66 161.788 36.472 161.788C37.62 161.788 38.222 162.558 38.222 163.678C38.222 165.372 36.654 167.374 33.616 170.062V171ZM44.7644 171.182C46.7804 171.182 48.0964 169.39 48.0964 165.806C48.0964 162.25 46.7804 160.5 44.7644 160.5C42.7344 160.5 41.4324 162.236 41.4324 165.806C41.4324 169.39 42.7344 171.182 44.7644 171.182ZM44.7644 169.908C43.7144 169.908 42.9724 168.788 42.9724 165.806C42.9724 162.852 43.7144 161.774 44.7644 161.774C45.8144 161.774 46.5564 162.852 46.5564 165.806C46.5564 168.788 45.8144 169.908 44.7644 169.908Z" fill="black"/>
<path d="M170.204 165H176.084V163.67H174.068V154.696H172.85C172.262 155.06 171.576 155.298 170.61 155.48V156.502H172.458V163.67H170.204V165ZM180.778 165.182C182.766 165.182 184.11 164.006 184.11 162.48C184.11 161.08 183.298 160.282 182.374 159.75V159.68C183.018 159.204 183.732 158.308 183.732 157.258C183.732 155.648 182.612 154.528 180.82 154.528C179.126 154.528 177.88 155.578 177.88 157.188C177.88 158.28 178.496 159.05 179.266 159.596V159.666C178.314 160.17 177.418 161.08 177.418 162.438C177.418 164.034 178.846 165.182 180.778 165.182ZM181.45 159.274C180.302 158.826 179.322 158.308 179.322 157.188C179.322 156.264 179.952 155.69 180.792 155.69C181.8 155.69 182.374 156.404 182.374 157.356C182.374 158.042 182.066 158.7 181.45 159.274ZM180.806 164.02C179.7 164.02 178.846 163.306 178.846 162.284C178.846 161.388 179.336 160.618 180.05 160.128C181.45 160.702 182.584 161.178 182.584 162.438C182.584 163.404 181.856 164.02 180.806 164.02Z" fill="black"/>
<path d="M186.204 90H192.084V88.67H190.068V79.696H188.85C188.262 80.06 187.576 80.298 186.61 80.48V81.502H188.458V88.67H186.204V90ZM196.526 90.182C198.416 90.182 199.97 89.09 199.97 87.228C199.97 85.842 199.032 84.946 197.842 84.652V84.582C198.934 84.176 199.62 83.35 199.62 82.16C199.62 80.452 198.318 79.5 196.47 79.5C195.28 79.5 194.328 80.018 193.516 80.746L194.356 81.754C194.944 81.18 195.616 80.788 196.414 80.774C197.394 80.788 197.996 81.362 197.996 82.272C197.996 83.308 197.324 84.078 195.294 84.078V85.268C197.618 85.268 198.346 86.01 198.346 87.158C198.346 88.222 197.548 88.866 196.386 88.866C195.322 88.866 194.552 88.348 193.95 87.732L193.166 88.768C193.852 89.538 194.902 90.182 196.526 90.182Z" fill="black"/>
</g>
<defs>
<clipPath id="clip0">
<rect width="206" height="176" fill="white"/>
</clipPath>
</defs>
</svg>
