<svg width="22" height="21" viewBox="0 0 22 21" fill="none" xmlns="http://www.w3.org/2000/svg">
<path d="M11.0055 0C4.9257 0 0 3.87485 0 8.64696C0 11.7114 2.04236 14.4068 5.09681 15.9408L4.06652 19.7903C4.04735 19.8471 4.04469 19.9082 4.05886 19.9664C4.07303 20.0247 4.10344 20.0777 4.14662 20.1196C4.17626 20.1489 4.2115 20.1719 4.25027 20.1875C4.28903 20.203 4.33054 20.2107 4.37233 20.21C4.44297 20.208 4.51089 20.1825 4.56528 20.1377L9.02499 17.1456C9.68091 17.2399 10.3427 17.2883 11.0055 17.2903C17.0816 17.2867 22 13.4227 22 8.64696C22 3.87123 17.0816 0 11.0055 0Z" fill="#442421"/>
</svg>
