<svg width="45" height="35" viewBox="0 0 45 35" fill="none" xmlns="http://www.w3.org/2000/svg">
<path d="M36.5625 33.871H29.1797C28.5996 33.871 28.125 33.3946 28.125 32.8125V29.2843C28.125 28.7021 28.5996 28.2258 29.1797 28.2258H36.5625C38.1181 28.2258 39.375 26.9645 39.375 25.4032V8.46774C39.375 6.9065 38.1181 5.64516 36.5625 5.64516H29.1797C28.5996 5.64516 28.125 5.16885 28.125 4.58669V1.05847C28.125 0.47631 28.5996 0 29.1797 0H36.5625C41.2207 0 45 3.79284 45 8.46774V25.4032C45 30.0781 41.2207 33.871 36.5625 33.871ZM32.4316 16.1417L17.666 1.32308C16.3476 0 14.0625 0.926159 14.0625 2.82258V11.2903H2.10938C0.94043 11.2903 0 12.2341 0 13.4073V21.875C0 23.0482 0.94043 23.9919 2.10938 23.9919H14.0625V32.4597C14.0625 34.3561 16.3476 35.2823 17.666 33.9591L32.4316 19.1406C33.249 18.3114 33.249 16.9707 32.4316 16.1417Z" fill="#DF0A15"/>
</svg>
