<svg width="216" height="49" viewBox="0 0 216 49" fill="none" xmlns="http://www.w3.org/2000/svg">
<g clip-path="url(#clip0)">
<g filter="url(#filter0_d)">
<path d="M60.5876 34.5223C58.9917 34.5099 57.6332 34.1183 56.5124 33.3473C55.4038 32.5762 54.5997 31.4991 54.1002 30.116C53.6129 28.7208 53.4667 27.1358 53.6616 25.3611L53.8261 24.0025C54.2282 20.7102 55.221 18.195 56.8049 16.457C58.4008 14.7067 60.4293 13.8622 62.8902 13.9234C64.6933 13.9724 66.1065 14.5415 67.1299 15.6308C68.1654 16.7078 68.7685 18.2194 68.939 20.1655C69.0365 21.3283 69.0122 22.4665 68.8659 23.5802L68.5188 25.967H58.6506C58.5897 26.4932 58.5714 27.0011 58.5957 27.4907C58.681 29.2531 59.5399 30.1528 61.1724 30.1895C62.6953 30.2384 64.1695 29.6571 65.5949 28.4454L67.2943 31.6031C66.6243 32.521 65.6861 33.2433 64.4801 33.7695C63.2861 34.2958 61.9887 34.5467 60.5876 34.5223ZM62.3968 18.201C60.947 18.1398 59.9358 19.07 59.3632 20.9916L58.9977 22.3318L64.0232 22.3502C64.145 21.6403 64.2121 21.0651 64.2242 20.6244C64.273 19.07 63.6638 18.2622 62.3968 18.201ZM69.7116 34.155L74.3168 7.42432L80.8774 7.44268C82.8145 7.49163 84.447 7.99956 85.7749 8.96647C87.115 9.93338 88.0714 11.2736 88.644 12.9871C89.2288 14.7006 89.3871 16.616 89.1191 18.7335L88.5343 22.6439C87.9983 26.2423 86.7007 29.0573 84.6419 31.0891C82.5951 33.1208 80.0184 34.1428 76.9118 34.155H69.7116ZM78.7941 11.9223L75.724 29.6754L77.0214 29.7122C78.8367 29.7122 80.2438 29.1859 81.2428 28.1333C82.2418 27.0684 82.9119 25.3611 83.253 23.0111L83.8743 18.6783C84.0449 17.2709 84.1119 16.2428 84.0754 15.5941C84.0145 14.3701 83.7037 13.4645 83.1434 12.877C82.5829 12.2895 81.7545 11.9773 80.658 11.9407L78.7941 11.9223ZM101.788 19.2842L100.18 19.1006C98.8279 19.0762 97.7376 19.7187 96.9091 21.0283L94.6249 34.155H89.5628L92.9984 14.2906L97.7314 14.2722L97.3294 16.457C97.9264 15.5023 98.5111 14.8353 99.0838 14.4558C99.6564 14.0642 100.272 13.8684 100.93 13.8684C101.319 13.8684 101.837 13.9602 102.483 14.1437L101.788 19.2842ZM109.049 34.5223C107.452 34.5099 106.094 34.1183 104.974 33.3473C103.864 32.5762 103.061 31.4991 102.561 30.116C102.074 28.7208 101.928 27.1358 102.122 25.3611L102.287 24.0025C102.689 20.7102 103.681 18.195 105.266 16.457C106.862 14.7067 108.89 13.8622 111.351 13.9234C113.154 13.9724 114.567 14.5415 115.59 15.6308C116.627 16.7078 117.23 18.2194 117.4 20.1655C117.497 21.3283 117.473 22.4665 117.326 23.5802L116.979 25.967H107.111C107.051 26.4932 107.032 27.0011 107.057 27.4907C107.142 29.2531 108.001 30.1528 109.633 30.1895C111.156 30.2384 112.63 29.6571 114.056 28.4454L115.755 31.6031C115.085 32.521 114.147 33.2433 112.941 33.7695C111.747 34.2958 110.449 34.5467 109.049 34.5223ZM110.858 18.201C109.408 18.1398 108.397 19.07 107.824 20.9916L107.458 22.3318L112.484 22.3502C112.605 21.6403 112.673 21.0651 112.686 20.6244C112.733 19.07 112.125 18.2622 110.858 18.201ZM127.328 34.155C127.231 33.7389 127.182 33.2249 127.182 32.6128C126.061 33.898 124.781 34.5405 123.345 34.5405C121.822 34.5161 120.597 33.953 119.671 32.8516C118.757 31.75 118.337 30.3792 118.41 28.7392C118.52 26.6339 119.336 24.9878 120.859 23.8005C122.382 22.6011 124.429 22.0014 126.999 22.0014H128.479L128.717 20.3858L128.771 19.5596C128.771 18.4948 128.345 17.9624 127.493 17.9624C126.311 17.9256 125.592 18.6845 125.337 20.2389L120.311 20.2756C120.42 18.3907 121.2 16.8547 122.65 15.6675C124.099 14.4681 125.866 13.8806 127.949 13.905C129.911 13.954 131.409 14.5783 132.444 15.7777C133.492 16.9649 133.919 18.5377 133.724 20.496L132.116 30.5933L132.043 31.5664C131.994 32.4232 132.079 33.1759 132.299 33.8246L132.28 34.155H127.328ZM124.733 30.4833C125.622 30.5077 126.451 30.116 127.218 29.3083L128.113 25.1041H127.018C126.042 25.153 125.256 25.4835 124.66 26.0954C124.063 26.7074 123.703 27.4784 123.582 28.4086L123.563 29.1063C123.563 29.4979 123.661 29.8223 123.856 30.0794C124.063 30.3364 124.355 30.471 124.733 30.4833ZM142.775 14.2722L142.446 16.1449C143.81 14.6149 145.364 13.8744 147.106 13.9234C148.994 13.9724 150.225 14.8658 150.798 16.6038C152.296 14.7679 153.965 13.8684 155.804 13.905C157.193 13.9296 158.254 14.4558 158.985 15.4839C159.728 16.4998 160.093 17.9502 160.08 19.835L159.99 21.524L157.906 34.155H152.845L154.946 21.4873L155.037 20.4592C155.135 18.9905 154.647 18.2561 153.575 18.2561C152.711 18.2561 151.918 18.8497 151.2 20.0369L151.09 20.9182L148.806 34.155H143.762L145.845 21.524L145.955 20.496C146.052 19.0027 145.57 18.2561 144.511 18.2561C144 18.2561 143.561 18.403 143.195 18.6967C142.841 18.9783 142.513 19.3148 142.208 19.7065L139.705 34.155H134.661L138.097 14.2906L142.775 14.2722ZM161.457 34.155L166.061 7.42432L173.426 7.44268C175.984 7.44268 177.934 8.06688 179.274 9.3153C180.615 10.5515 181.205 12.3139 181.047 14.6027C180.839 17.3199 179.426 19.2904 176.807 20.5143C177.745 20.906 178.434 21.5913 178.872 22.5705C179.311 23.5374 179.482 24.7308 179.384 26.1505C179.201 28.635 178.318 30.5933 176.734 32.0253C175.162 33.4451 173.048 34.155 170.392 34.155H161.457ZM168.711 22.5337L167.469 29.6754L170.539 29.7122C171.696 29.6877 172.603 29.2655 173.262 28.4454C173.932 27.6131 174.279 26.432 174.303 24.9021C174.303 23.4334 173.688 22.6501 172.458 22.5521L168.711 22.5337ZM169.369 18.6049L171.855 18.6417C173.183 18.6171 174.188 18.1644 174.87 17.2831C175.552 16.4019 175.845 15.2758 175.747 13.905C175.626 12.6688 174.895 12.0141 173.554 11.9407L170.539 11.9223L169.369 18.6049ZM190.627 34.155C190.531 33.7389 190.482 33.2249 190.482 32.6128C189.361 33.898 188.081 34.5405 186.643 34.5405C185.121 34.5161 183.897 33.953 182.97 32.8516C182.057 31.75 181.637 30.3792 181.709 28.7392C181.82 26.6339 182.636 24.9878 184.159 23.8005C185.682 22.6011 187.728 22.0014 190.299 22.0014H191.779L192.016 20.3858L192.071 19.5596C192.071 18.4948 191.645 17.9624 190.793 17.9624C189.61 17.9256 188.891 18.6845 188.635 20.2389L183.61 20.2756C183.72 18.3907 184.5 16.8547 185.949 15.6675C187.399 14.4681 189.166 13.8806 191.249 13.905C193.211 13.954 194.709 14.5783 195.744 15.7777C196.792 16.9649 197.218 18.5377 197.024 20.496L195.416 30.5933L195.343 31.5664C195.294 32.4232 195.379 33.1759 195.599 33.8246L195.58 34.155H190.627ZM188.032 30.4833C188.922 30.5077 189.751 30.116 190.518 29.3083L191.413 25.1041H190.317C189.342 25.153 188.556 25.4835 187.96 26.0954C187.363 26.7074 187.003 27.4784 186.882 28.4086L186.863 29.1063C186.863 29.4979 186.961 29.8223 187.156 30.0794C187.363 30.3364 187.655 30.471 188.032 30.4833ZM206.952 13.9234C208.706 13.9724 209.986 14.6945 210.789 16.0897L211.411 14.2722L216.016 14.2906L212.653 34.155C212.3 36.7376 211.313 38.7081 209.693 40.0667C208.084 41.4252 206.056 42.0678 203.608 41.9944C202.536 41.9698 201.476 41.7496 200.428 41.3334C199.38 40.9173 198.503 40.342 197.796 39.6077L199.861 36.046C200.873 37.1965 202.134 37.7962 203.644 37.8452C205.837 37.9308 207.177 36.7192 207.664 34.2101L208.03 32.5578C206.848 33.8796 205.545 34.5405 204.119 34.5405C202.389 34.5161 201.079 33.849 200.191 32.5394C199.313 31.2176 198.887 29.3939 198.911 27.0684C198.911 25.6242 199.051 24.0821 199.331 22.442C199.624 20.7896 200.038 19.3944 200.574 18.2561C201.963 15.2942 204.089 13.85 206.952 13.9234ZM203.9 27.0134C203.9 29.0941 204.564 30.1528 205.892 30.1895C206.781 30.214 207.616 29.8346 208.395 29.0512L210.095 19.5046C209.632 18.7089 208.962 18.2867 208.084 18.2378C205.941 18.1276 204.649 19.8656 204.211 23.4518C204.004 25.1653 203.9 26.3525 203.9 27.0134Z" fill="#DF0A15"/>
<path d="M1.99926 7H47.982L45.9828 13.0255H0L1.99926 7Z" fill="#DF0A15"/>
<path d="M11.4133 17.0424H43.9844L42.5682 23.068H9.99711L11.4133 17.0424Z" fill="#DF0A15"/>
<path d="M21.4083 27.0852H39.9847L38.5686 33.1107H19.9922L21.4083 27.0852Z" fill="#DF0A15"/>
</g>
</g>
<defs>
<filter id="filter0_d" x="-4" y="7" width="224.016" height="43" filterUnits="userSpaceOnUse" color-interpolation-filters="sRGB">
<feFlood flood-opacity="0" result="BackgroundImageFix"/>
<feColorMatrix in="SourceAlpha" type="matrix" values="0 0 0 0 0 0 0 0 0 0 0 0 0 0 0 0 0 0 127 0"/>
<feOffset dy="4"/>
<feGaussianBlur stdDeviation="2"/>
<feColorMatrix type="matrix" values="0 0 0 0 0 0 0 0 0 0 0 0 0 0 0 0 0 0 0.25 0"/>
<feBlend mode="normal" in2="BackgroundImageFix" result="effect1_dropShadow"/>
<feBlend mode="normal" in="SourceGraphic" in2="effect1_dropShadow" result="shape"/>
</filter>
<clipPath id="clip0">
<rect width="216" height="49" fill="white"/>
</clipPath>
</defs>
</svg>
