<svg width="42" height="35" viewBox="0 0 42 35" fill="none" xmlns="http://www.w3.org/2000/svg">
<path d="M12.0359 20.3333H3.67537C2.20392 20.3333 1 19.1333 1 17.6667V11.6667C1 10.2 2.20392 9 3.67537 9H12.0359C13.5073 9 14.7113 10.2 14.7113 11.6667V17.6667C14.7113 19.1333 13.5073 20.3333 12.0359 20.3333Z" fill="#DF0A15" stroke="#DF0A15" stroke-width="2" stroke-miterlimit="10"/>
<path d="M17.7211 9H4.67871V20.3333H17.7211V9Z" fill="#DF0A15" stroke="#DF0A15" stroke-width="2" stroke-miterlimit="10" stroke-linejoin="round"/>
<path d="M14.7109 19.6C19.4597 20.2667 26.2819 21.6 29.091 23.0667C33.9736 25.6 35.5788 27.3333 35.5788 27.3333H37.8529V15.1333V14.8667V2H35.5119C35.5119 2 28.7566 7.93333 14.7109 9.73333V19.6Z" stroke="#DF0A15" stroke-width="3.5" stroke-miterlimit="10" stroke-linecap="round" stroke-linejoin="round"/>
<path d="M11.4615 34C11.4615 34 9 34 9 30.3478C9 26.6957 9 20 9 20H15.1538V30.3478C15.1538 30.3478 15.1538 33.3913 17 34C15.7692 34 11.4615 34 11.4615 34Z" fill="#DF0A15" stroke="#DF0A15" stroke-width="0.985" stroke-miterlimit="10" stroke-linecap="round" stroke-linejoin="round"/>
<path d="M37.7861 12.4C38.2543 12.0667 38.7894 11.8 39.3914 11.8C40.7959 11.8 41.9998 12.9334 41.9998 14.4C41.9998 15.8667 40.8628 17 39.3914 17C38.7894 17 38.1874 16.8 37.7861 16.4" fill="#DF0A15"/>
</svg>
