<svg width="31" height="26" viewBox="0 0 31 26" fill="none" xmlns="http://www.w3.org/2000/svg">
<path d="M30.9236 22.1429C30.9236 21.4397 30.341 20.8571 29.6378 20.8571H1.35212C0.648996 20.8571 0.0664062 21.4397 0.0664062 22.1429V24.7143C0.0664062 25.4174 0.648996 26 1.35212 26H29.6378C30.341 26 30.9236 25.4174 30.9236 24.7143V22.1429ZM30.9236 11.8571C30.9236 11.154 30.341 10.5714 29.6378 10.5714H1.35212C0.648996 10.5714 0.0664062 11.154 0.0664062 11.8571V14.4286C0.0664062 15.1317 0.648996 15.7143 1.35212 15.7143H29.6378C30.341 15.7143 30.9236 15.1317 30.9236 14.4286V11.8571ZM30.9236 1.57143C30.9236 0.868302 30.341 0.285714 29.6378 0.285714H1.35212C0.648996 0.285714 0.0664062 0.868302 0.0664062 1.57143V4.14286C0.0664062 4.84598 0.648996 5.42857 1.35212 5.42857H29.6378C30.341 5.42857 30.9236 4.84598 30.9236 4.14286V1.57143Z" fill="white"/>
</svg>
