<svg width="45" height="37" viewBox="0 0 45 37" fill="none" xmlns="http://www.w3.org/2000/svg">
<path d="M30.5 14.5L28.5 16.5L34 22L44 12.5L42 10.5L34 18L30.5 14.5Z" fill="#DF0A15" stroke="#DF0A15" stroke-width="2" stroke-linejoin="round"/>
<path d="M21.2846 28.0001V23.8461C21.2846 22.3318 22.6147 21.077 24.2203 21.077H29.3351C28.0277 19.6923 26.3075 19 24.3579 19C23.991 19 23.7387 19.1515 23.4634 19.3679C21.2158 20.9904 19.0368 22.0073 16.1469 22.0073C13.2569 22.0073 11.078 20.9904 8.83034 19.3679C8.55509 19.1515 8.30281 19 7.93583 19C1.2156 19 0 26.5072 0 31.3966C0 34.923 2.45414 36.9999 6.1239 36.9999H26.1699C27.546 36.9999 31.3152 34.7846 31.3152 31.8307V30.7692H24.2203C22.6147 30.7692 21.2846 29.5144 21.2846 28.0001Z" fill="#DF0A15"/>
<path d="M10.7154 28V23.8462C10.7154 22.3319 9.38522 21.0769 7.77965 21.0769L3.81631 21.4925C5.12368 20.1078 5.83008 19.5817 7.77965 19.5817C8.1466 19.5817 8.26134 19.1516 8.53659 19.3679C10.7843 20.9905 12.9632 22.0074 15.8531 22.0074C18.7431 22.0074 21.9235 21.6382 24.1713 20.0155C24.4464 19.7992 24.6987 19.6476 25.0658 19.6476C31.786 19.6476 32 26.5073 32 31.3967C32 34.9231 29.5459 37 25.876 37L6.94783 36.2616C5.57175 36.2616 3.37432 35.5634 2.25055 34.7847L1.90812 30.7693H7.77965C9.38522 30.7693 10.7154 29.5145 10.7154 28Z" fill="#DF0A15"/>
<path d="M15.6551 18.1685C20.6695 18.1685 24.7378 14.1002 24.7378 9.08573C24.7378 4.07129 20.6695 0.00299072 15.6551 0.00299072C10.6406 0.00299072 6.57227 4.07129 6.57227 9.08573C6.57227 14.1002 10.6406 18.1685 15.6551 18.1685Z" fill="#DF0A15"/>
</svg>
