<svg width="45" height="35" viewBox="0 0 45 35" fill="none" xmlns="http://www.w3.org/2000/svg">
<path d="M15.1531 17.6563C19.7162 17.6563 23.4183 13.877 23.4183 9.21875C23.4183 4.56055 19.7162 0.78125 15.1531 0.78125C10.5899 0.78125 6.88775 4.56055 6.88775 9.21875C6.88775 13.877 10.5899 17.6563 15.1531 17.6563ZM35.8164 20.4688V12.7344C35.8164 12.3608 35.4934 12.0313 35.1275 12.0313H30.9949C30.629 12.0313 30.3061 12.3608 30.3061 12.7344V20.4688H22.7296C22.3637 20.4688 22.0408 20.7983 22.0408 21.1718V25.3906C22.0408 25.7642 22.3637 26.0937 22.7296 26.0937H30.3061V33.8282C30.3061 34.2017 30.629 34.5312 30.9949 34.5312H35.1275C35.4934 34.5312 35.8164 34.2017 35.8164 33.8282V26.0937H43.3929C43.7587 26.0937 44.0817 25.7642 44.0817 25.3906V21.1718C44.0817 20.7983 43.7587 20.4688 43.3929 20.4688H35.8164ZM19.9745 25.3906V21.1718C19.9745 19.6338 21.2229 18.3594 22.7296 18.3594H27.5295C26.3026 16.9531 24.6883 16.25 22.8587 16.25C22.5144 16.25 22.2776 16.4038 22.0192 16.6236C19.9099 18.2715 17.8651 19.3042 15.1531 19.3042C12.441 19.3042 10.3962 18.2715 8.28684 16.6236C8.02854 16.4038 7.79177 16.25 7.44738 16.25C1.14078 16.25 0 23.8745 0 28.8403C0 32.4219 2.30309 34.5312 5.74697 34.5312H24.5592C25.8506 34.5312 27.1851 34.2237 28.2397 33.4327V28.2031H22.7296C21.2229 28.2031 19.9745 26.9287 19.9745 25.3906Z" fill="#DF0A15"/>
</svg>
