<svg width="182" height="117" viewBox="0 0 182 117" fill="none" xmlns="http://www.w3.org/2000/svg">
<g clip-path="url(#clip0)">
<path d="M99.524 116.986C98.6228 116.984 97.7368 116.753 96.9498 116.314C96.1627 116.753 95.2768 116.984 94.3755 116.986H53.2589C51.8403 116.986 50.4799 116.423 49.4768 115.421C48.4737 114.419 47.9102 113.061 47.9102 111.644V97.5905H7.40853C5.98996 97.5905 4.62948 97.0278 3.6264 96.026C2.62332 95.0243 2.0598 93.6656 2.0598 92.249V85.4935C2.0598 84.0768 2.62332 82.7182 3.6264 81.7164C4.62948 80.7147 5.98996 80.1519 7.40853 80.1519H8.18081V45.3318L6.60765 45.7174C5.8156 45.909 4.9902 45.9173 4.19446 45.7417C3.39872 45.566 2.65369 45.2111 2.01625 44.7041C1.37881 44.197 0.865822 43.5512 0.516452 42.8159C0.167081 42.0807 -0.0094321 41.2754 0.000388432 40.4616V32.8206C0.000322283 31.6313 0.398751 30.4762 1.13221 29.5392C1.86568 28.6023 2.89199 27.9374 4.04769 27.6505L78.6583 9.04069V5.32734C78.6583 3.91068 79.2218 2.55201 80.2249 1.55028C81.2279 0.548542 82.5884 -0.0142822 84.007 -0.0142822H95.7342C97.1527 -0.0142822 98.5132 0.548542 99.5163 1.55028C100.519 2.55201 101.083 3.91068 101.083 5.32734V9.48343L175.636 27.1362C176.811 27.4082 177.859 28.0708 178.607 29.0154C179.355 29.96 179.76 31.1305 179.755 32.335V39.976C179.756 41.0281 179.445 42.057 178.863 42.9336C178.28 43.8102 177.451 44.4954 176.48 44.9033V80.2375H176.68C178.099 80.2375 179.459 80.8004 180.462 81.8021C181.465 82.8038 182.029 84.1625 182.029 85.5792V92.3346C182.029 93.7513 181.465 95.11 180.462 96.1117C179.459 97.1134 178.099 97.6762 176.68 97.6762H146.118V111.673C146.118 113.089 145.555 114.448 144.551 115.45C143.548 116.452 142.188 117.014 140.769 117.014H99.524V116.986Z" fill="#1D1D1B"/>
<path d="M172.776 90.178H12.6143V31.8922L90.9432 19.0382L172.776 31.8922V90.178Z" fill="white" stroke="#1D1D1B" stroke-miterlimit="10"/>
<path d="M38.2706 44.7462H147.305C148.158 44.7462 148.977 45.0848 149.58 45.6874C150.183 46.2901 150.522 47.1074 150.522 47.9597V90.178H35.0527V47.9597C35.0527 47.1074 35.3918 46.2901 35.9952 45.6874C36.5987 45.0848 37.4171 44.7462 38.2706 44.7462Z" fill="white" stroke="#1D1D1B" stroke-miterlimit="10"/>
<path d="M47.3096 57.6145V59.2427L142.829 59.2427V57.6145L47.3096 57.6145Z" fill="white" stroke="#1D1D1B" stroke-miterlimit="10"/>
<path d="M47.3096 70.4685V72.0967H142.829V70.4685H47.3096Z" fill="white" stroke="#1D1D1B" stroke-miterlimit="10"/>
<path d="M97.3782 12.6826V4.04187H83.0768V12.1827L4.41895 31.8779V42.1611L89.9415 21.3376L90.2704 21.3091L176.036 41.5898V31.3066L97.3782 12.6826Z" fill="white" stroke="#1D1D1B" stroke-miterlimit="10"/>
<path d="M178.311 84.2794H6.49316V93.62H178.311V84.2794Z" fill="white" stroke="#1D1D1B" stroke-miterlimit="10"/>
<path d="M96.0915 80.4518H52.3291V112.93H96.0915V80.4518Z" fill="#FEC65A" stroke="#1D1D1B" stroke-miterlimit="10"/>
<path d="M79.244 80.4518H69.1758V87.0216H79.244V80.4518Z" fill="white" stroke="#1D1D1B" stroke-miterlimit="10"/>
<path d="M142.428 80.4518H98.666V112.93H142.428V80.4518Z" fill="#FEC65A" stroke="#1D1D1B" stroke-miterlimit="10"/>
<path d="M125.581 80.4518H115.513V87.0216H125.581V80.4518Z" fill="white" stroke="#1D1D1B" stroke-miterlimit="10"/>
</g>
<defs>
<clipPath id="clip0">
<rect width="182" height="117" fill="white"/>
</clipPath>
</defs>
</svg>
