<svg width="19" height="20" viewBox="0 0 19 20" fill="none" xmlns="http://www.w3.org/2000/svg">
<path d="M9.1667 10C11.9271 10 14.1667 7.76043 14.1667 5C14.1667 2.23958 11.9271 0 9.1667 0C6.40626 0 4.16667 2.23958 4.16667 5C4.16667 7.76043 6.40626 10 9.1667 10ZM12.0834 14.5834V12.0833C12.0834 11.1719 12.8385 10.4167 13.75 10.4167H16.6537C15.9115 9.58334 14.9349 9.16665 13.8281 9.16665C13.6198 9.16665 13.4766 9.25784 13.3203 9.38806C12.0443 10.3646 10.8073 10.9766 9.1667 10.9766C7.52604 10.9766 6.28906 10.3646 5.01303 9.38806C4.85677 9.25784 4.71355 9.16665 4.50521 9.16665C0.690104 9.16665 0 13.6849 0 16.6276C0 18.75 1.39323 20 3.47657 20H14.8568C15.638 20 17.7778 18.6667 17.7778 16.8889V16.25H13.75C12.8385 16.25 12.0834 15.4948 12.0834 14.5834Z" fill="#DF0A15"/>
<path d="M6.08313 14.5833V12.0833C6.08313 11.1719 5.32797 10.4166 4.41648 10.4166L2.16647 10.6667C2.90867 9.83335 3.3097 9.51671 4.41648 9.51671C4.6248 9.51671 4.68994 9.25782 4.8462 9.38803C6.12221 10.3646 7.35921 10.9766 8.9998 10.9766C10.6405 10.9766 12.446 10.7544 13.7221 9.77779C13.8783 9.64758 14.0215 9.55638 14.2299 9.55638C18.045 9.55638 18.1665 13.6849 18.1665 16.6276C18.1665 18.75 16.7733 20 14.6899 20L3.94425 19.5556C3.16304 19.5556 1.91555 19.1354 1.27758 18.6667L1.08318 16.25H4.41648C5.32797 16.25 6.08313 15.4948 6.08313 14.5833Z" fill="#DF0A15"/>
</svg>
