<svg width="27" height="20" viewBox="0 0 27 20" fill="none" xmlns="http://www.w3.org/2000/svg">
<path d="M9.1667 10C11.9271 10 14.1667 7.76043 14.1667 5C14.1667 2.23958 11.9271 0 9.1667 0C6.40626 0 4.16667 2.23958 4.16667 5C4.16667 7.76043 6.40626 10 9.1667 10ZM21.6667 11.6667V7.08337C21.6667 6.86196 21.4714 6.66667 21.25 6.66667H18.75C18.5287 6.66667 18.3333 6.86196 18.3333 7.08337V11.6667H13.75C13.5287 11.6667 13.3333 11.862 13.3333 12.0833V14.5834C13.3333 14.8047 13.5287 15 13.75 15H18.3333V19.5834C18.3333 19.8047 18.5287 20 18.75 20H21.25C21.4714 20 21.6667 19.8047 21.6667 19.5834V15H26.25C26.4714 15 26.6667 14.8047 26.6667 14.5834V12.0833C26.6667 11.862 26.4714 11.6667 26.25 11.6667H21.6667ZM12.0834 14.5834V12.0833C12.0834 11.1719 12.8385 10.4167 13.75 10.4167H16.6537C15.9115 9.58334 14.9349 9.16665 13.8281 9.16665C13.6198 9.16665 13.4766 9.25784 13.3203 9.38806C12.0443 10.3646 10.8073 10.9766 9.1667 10.9766C7.52604 10.9766 6.28906 10.3646 5.01303 9.38806C4.85677 9.25784 4.71355 9.16665 4.50521 9.16665C0.690104 9.16665 0 13.6849 0 16.6276C0 18.75 1.39323 20 3.47657 20H14.8568C15.638 20 16.4453 19.8177 17.0833 19.349V16.25H13.75C12.8385 16.25 12.0834 15.4948 12.0834 14.5834Z" fill="#DF0A15"/>
</svg>
